<?xml version="1.0"?>
<svg xmlns:rdf="http://www.w3.org/1999/02/22-rdf-syntax-ns#" xmlns="http://www.w3.org/2000/svg" xmlns:cc="http://web.resource.org/cc/" xmlns:xlink="http://www.w3.org/1999/xlink" xmlns:dc="http://purl.org/dc/elements/1.1/" id="Layer_1" xml:space="preserve" overflow="visible" height="528.12" viewBox="0 0 385.248 528.125" width="385.25" version="1.1" enable-background="new 0 0 385.248 528.125">
<g clip-rule="evenodd" fill-rule="evenodd">
	<path d="m71.928 330.09v-30.521l13.416-19.788 8.05-3.689 4.36-13.081-4.36-7.714s-25.491 15.092-25.826 16.099-2.683 5.032-4.36 9.057-11.404 16.77-11.404 16.77l-4.025 29.516 11.068 10.062 13.081-6.72z" fill="#F4E2CF"/>
		<path d="m138.04 51.482c-2.851 4.062 0.1 7.366-2.667 10.67-4.01-2.759-1.64-9.142 2.67-10.67z"/>
		<path d="m118.48 57.707c2.58 10.119 5.79 18.311 7.114 26.676-8.301-3.133-11.45-6.106-17.784-5.335 5.289 11.606 16.3 17.489 24.897 25.787-10.092-1.768-18.492-12.923-29.344-16.895 2.02-12.996 5.167-19.613 9.781-29.344 2.72 0.64 2.61-1.539 5.33-0.894z" fill="#fff"/>
		<path d="m141.6 58.596c-2.165 1.87 0.788 3.953-0.889 5.335-3.53 0.24-3.8-6.772 0.89-5.335z"/>
		<path d="m278.54 180.42c1.059 2.069 1.486 5.531-1.778 6.224 0.59-3.92-0.14-3.64 1.78-6.22z"/>
		<path d="m231.41 183.08c3.257 3.542 6.771 9.522 1.778 12.449-0.19-4.74-1.05-7.64-1.78-12.45z"/>
		<path d="m268.76 191.09c-0.143 1.042-1.621 0.75-2.667 0.889 0.163-0.756-0.347-0.839-0.89-0.889 2.486-3.321-0.707-7.071 5.335-7.114 0.26 1.77-2.36 5.93-1.78 7.11z"/>
		<path d="m258.09 197.31c0.72 0.168 0.887 0.892 1.778 0.889-0.262 1.813-2.406 1.744-2.668 3.557-0.72-0.169-0.887-0.892-1.778-0.889 0.26-1.81 2.41-1.74 2.67-3.56z"/>
		<path d="m177.17 223.1c3.69-3.423 5.677-8.551 11.56-9.781-3.7 2.97-7.18 10.39-11.56 9.78z" fill="#F4E2CF"/>
		<path d="m265.2 221.32c-2.394 4.253-1.683 6.008-1.778 11.56-4.64-3.62-4.71-10.44 1.78-11.56z"/>
		<path d="m315.89 229.32c-1.93 2.855-5.196 2.63-7.113 1.779 0.27-2.7 5.02-3.6 7.11-1.78z"/>
		<path d="m328.34 251.55c4.915-1.095 6.055-10.709 5.335-18.673 4.628 6.506 6.615 29.296-5.335 34.679-1.912-7.747-3.692-27.437 0.89-35.568 5.67 5.05 0.4 15.5-0.89 19.56z" fill="#F4E2CF"/>
		<path d="m309.66 234.66c0.235 2.707-6.736 1.801-8.003 2.668-2.75-2.24 5.76-5.42 8-2.67z"/>
		<path d="m230.52 240.88c-4.835 5.335-20.064 13.157-24.009 0.889 10.79 3.92 14.41 2.8 24.01-0.89z"/>
		<path d="m154.05 243.55c3.524 2.413-0.34 4.114 0 8.003-1.79-0.99-1.02-6.87 0-8z" fill="#F4E2CF"/>
		<path d="m236.75 253.33c3.788 2.229-3.033 7.343 2.668 8.893-1.581 1.976-3.969 3.146-7.113 3.557-3.48-5.92 3.13-7.85 4.44-12.45z" fill="#F4E2CF"/>
		<path d="m279.43 256.89c-2.034 0.93-3.15 2.777-6.225 2.667 0.72-2.27 4.58-4.06 6.23-2.67z"/>
		<path d="m319.44 256.89c3.127 2.061 2.25 2.914 3.557 7.113-3.27-2-4.14-4.37-3.56-7.11z"/>
		<path d="m268.76 257.78c3.785 2.759 4.08 4.028 4.446 10.671-1.859 0.512-2.538 2.204-5.335 1.778 4.4-3.8-0.11-8.58 0.88-12.45z"/>
		<path d="m320.33 262.22c0.163 0.756-0.347 0.839-0.889 0.889 3.336 2.784 2.416 5.067 1.778 8.003-4.169-2.134-1.182-5.868-3.557-8.003-0.164-0.756 0.346-0.839 0.889-0.889h1.78z"/>
		<path d="m266.09 265.78c-1.352 4.768-5.119 2.036-8.003 4.446-0.45-4.17 5.32-9.02 8-4.45z"/>
		<path d="m337.23 274.67c4.405 9.408 2.637 16.138 0.889 28.454-0.16-11.74-3.55-23.27-0.89-28.45z"/>
		<path d="m296.32 283.57c2.46 1.387-0.885 4.366-2.667 4.446-0.41-2.8 2.4-2.36 2.67-4.45z"/>
		<path d="m297.21 288.9c-0.852 1.817-1.816 3.519-2.668 5.336-2.73-1.15-2.06-5.59 2.67-5.34z"/>
		<path d="m115.82 323.58c6.831 1.688 0.557 7.698 1.779 13.338-4.6-3.68-1.37-7.13-1.78-13.34z" fill="#fff"/>
		<path d="m90.028 326.25c3.166 4.688-5.463 16.678-8.003 18.674-0.323-7.61 6.892-10.43 8.003-18.67z"/>
		<path d="m94.474 331.58c1.249 4.515-2.81 10.784-3.557 17.784-0.379 3.558 1.014 7.491-0.889 11.56-3.853-9.57 0.544-21.46 4.446-29.34z"/>
		<path d="m109.59 344.03c1.479 8.784-0.562 10.545 0.889 20.452-4.13-6.94-2.38-12.26-0.89-20.45z"/>
		<path d="m93.585 346.7c5.787 10.81 7.907 25.287 18.673 36.458-0.75 2.924-6.008-1.502-3.557-1.778-8.989-8.23-17.096-21.45-15.115-34.68z"/>
		<path d="m112.26 348.48c1.975 5.716 1.022 17.9 3.557 24.898-6.19-9.83-3.93-15.91-3.56-24.9z"/>
		<path d="m122.04 376.93c-4.621 2.83-5.143-7.412-5.335-15.117 3.31 2.33 1.32 10.01 5.34 15.12z"/>
		<path d="m62.462 363.6c-1.533 2.913-4.691 4.2-6.224 7.113-1.979-2.91 2.52-6.94 6.224-7.11z"/>
		<path d="m79.357 363.6c8.263 16.228 33.832 20.966 45.35 33.789 2.729 3.038 4.637 7.571 3.557 13.339-7.77-23.12-40.952-23.58-48.913-47.13z"/>
		<path d="m57.127 374.26c-0.657-3.918 2.878-3.643 3.557-6.225 3.375 0.99-1.082 5.61-3.557 6.22z"/>
		<path d="m63.352 371.6c-0.326 2.274-1.542 5.586-3.557 3.557 0.108-2.27 1.294-3.45 3.557-3.56z"/>
		<path d="m55.349 383.16c3.793 1.028-0.368 8.164-0.889 10.67-4.177-2.11 0.968-7.09 0.889-10.67z"/>
		<path d="m57.127 398.27c-1.954-2.301-0.28-8.54 2.667-8.892-0.233 3.62-1.672 6.04-2.667 8.89z"/>
		<path d="m241.19 391.16c6.345 3.898 16.45 6.341 24.009 10.67-6.759 5.822-6.185 18.439-15.116 16.896-10.87-1.88-8.88-18.65-8.89-27.57z" fill="#fff"/>
		<path d="m70.465 401.83c-0.163-0.756 0.347-0.839 0.889-0.889h1.779c-1.433 3.371 0.286 9.62-4.446 11.56-0.083-4.8 3.744-8.98 1.778-10.67z"/>
		<path d="m74.912 402.72c4.219 2.996-1.011 10.453-0.889 13.338-4.032-3.68 2.22-8.7 0.889-13.34z"/>
		<path d="m236.75 417.84h5.336c4.975 5.389 8.826 10.094 1.778 18.674-3.156-4.574 2.394-6.509 0-10.671-7.089 5.339-5.909 17.805 3.557 16.896 8.622-0.828 11.034-15.652 6.225-20.452 0.262-3.099 2.406 0.074 2.668-1.778 13.371 14.586 5.024 29.747 0 43.571-7.226 9.885-18.308 24.025-26.677 33.79-3.887 2.11-5.414 9.338-11.56 11.56-1.54-35.73-9.07-69.62 18.66-91.59zm4.44 30.23c-9.329-4.244-3.983-13.091-8.892-16.006-2.14 6.84 2.39 19.39 8.89 16.01z" fill="#fff"/>
		<path d="m131.82 421.39c0.546 2.729-0.608 8.347-3.557 8.893-0.46-4.61 2.79-5.51 3.56-8.89z"/>
		<path d="m232.3 432.06c4.908 2.915-0.438 11.762 8.892 16.006-6.5 3.38-11.03-9.17-8.89-16.01z"/>
		<path d="m141.6 441.84c4.093 1.351 1.364 6.951 6.225 8.892-1.419 2.914 0.53 4.201-0.889 7.114-3.4-4.04-5.78-9.92-5.33-16z"/>
		<path d="m94.474 257.78c-6.307 3.575-4.208 3.555-8.892 8.893-7.15-2.547-12.069 4.987-18.673 8.003-1.521-6.894 9.792-9.979 16.006-14.228 3.286-2.247 6.689-5.725 9.781-7.114 7.125 2.873 6.986 12.28 3.557 17.784 3.538-1.176 19.197 2.802 22.23 1.779 11.709 8.31-3.211 20.175-16.895 20.451-4.785 3.442-5.064 7.204-9.781 11.56 3.416 4.576-1.168 9.493 1.778 12.449 7.539-1.878 12.469-7.695 20.452-5.335 2.451-8.49 3.829-15.351 11.56-18.674 2.078 0.293 3.673 1.069 5.335 1.778 1.63 2.521 1.206 7.094 4.446 8.003 12.282-2.732 15.617-14.949 23.119-17.784-2.74-5.206-1.885-12.106-3.557-17.784-1.232-4.184-4.553-6.467-5.335-9.781-3.194-13.532 3.789-24.701 6.225-36.458 5.917-0.878 9.233 0.844 11.56 3.557-3.872-8.718 1.074-15.576 3.557-17.784-0.803-2.427-1.989 2.705-3.557 0-3.348-24.073-13.698-57.662-19.562-84.475-21.977-1.842-33.148-17.151-46.239-30.233-1.696 1.669-1.609-0.528-4.446 0-0.588-21.019 7.025-44.038 28.455-48.907 2.959-8.673 12.401-12.817 19.562-19.562 16.86-3.039 34.653-5.719 49.795-10.67 2.111-0.69 3.318-2.829 5.335-3.557 4.219-1.521 13.234-2.15 14.228-2.667 7.896-4.113 20.149-4.53 27.565-6.225 8.575-1.959 8.418 0.102 16.895 1.779 0.839 0.166 0.656-1.057 0-0.889 3.729-0.95 17.408 2.574 24.009 4.446 0.084 0.024-1.182 1.662-0.889 1.778 2.814 1.122 8.833 0.47 13.338 1.778 0.327 0.095 0.677 1.724 0.889 1.779 14.002 3.636 33.437-5.74 39.126 3.557 0.555 0.906 4.35 4.843 5.335 6.225 1.932 2.706 3.15 5.112 6.225 6.224 1.788 4.323 1.249 12.623-1.778 19.563-4.121 9.442-8.786 21.866-11.561 28.455-0.06 0.142-1.605-1.236-1.778-0.889-1.068 2.144-0.604 5.699-1.778 8.003-3.651 7.17-14.13 16.638-13.338 21.341 3.079 18.293 10.81 62.398 7.113 85.364 0.784 2.649 2.874 3.379 0.89 6.224 4.181 2.207 6.793 10.176 5.335 15.117 17.428 0.605 4.336 16.4 7.114 24.009 4.214 11.541 4.626 30.593-7.114 37.347-0.245 9.165 2.783 16.932 1.778 29.344-1.422 17.581-11.092 27.139-25.787 38.236-18.625 14.066-37.567 32.893-56.02 40.903-10.942 2.995-17.445-4.835-31.122-8.892-2.439 3.335 7.317 8.197 6.224 9.781 26.059 10.271 48.89 3.63 71.137-1.779 1.13-0.274 0.034 1.294 0 1.779 9.634-3.562 18.104-7.129 26.677-11.561-5.832 13.919-34.066 20-51.574 23.12-1.735 0.309-8.212-2.342-7.113 2.667 1.009-0.169 0.494-0.892 0-0.889 8.535 1.201 19.719 0.833 30.232-0.89 30.697-5.028 54.463-28.555 64.023-51.574 1.624 9.253-5.788 16.806-11.56 24.009-12.05 15.037-28.419 27.464-50.686 33.79 27.249 3.289 58.369-22.998 72.026-47.128 5.776-10.205 15.015-35.915 13.338-44.461-1.032-5.262-6.257-9.658-9.781-13.338-3.639 8.441-2.481 15.5-8.003 22.23-2.049-5.338 3.147-11.525 3.557-19.562 0.093-1.83 1.903-8.721-2.667-9.781-1.597 1.998 1.129 4.368-1.778 7.113-5.745-8.141-18.289-20.141-24.009-28.454 11.048-1.784 14.521 18.406 29.344 18.673 5.222 5.158 11.593 13.891 16.895 16.006 0.226 29.298-14.048 55.157-27.565 72.026-12.468 15.56-31.247 29.427-56.909 31.122-8.114 0.536-19.851-0.456-28.455-2.668-1.168 0.314-1.398 1.565-2.667 1.778-1.842 10.759 4.919 23.535 7.113 36.458 4.184 24.634 0.416 55.793-16.895 80.918-1.824 2.648-2.684 7.538-8.003 7.113-4.103-14.448-7.284-27.005-11.56-37.347-9.812 10.582-20.979 22.434-24.898 32.901-5.769 0.564-3.465-21.068-3.557-21.342-15.888-34.228-0.12-67.054 24.897-87.143-5.575-6.505-8.05-11.293-6.224-20.451-21.742 7.807-47.992 9.698-70.248-0.89-4.637-2.205-8.945-8.534-10.67-9.781-0.316 2.983-3.275 7.938-1.778 9.781-3.59 10.793-9.729 18.133-11.56 27.565-1.899 9.788 2.234 16.49-2.668 25.787-5.729 10.867-14.168 20.551-27.565 27.565 5.441 2.55 10.095 10.427 11.56 19.562 11.058-15.135 15.645-28.834 18.673-48.017 5.843 2.869 2.3 9.265 1.778 13.338-2.526 19.724-12.341 34.825-23.12 48.018-3.668 1.075-4.3 5.184-8.003 6.225-1.669 2.184-2.305 5.401-6.224 5.335 3.188-9.027 8.151-9.92 14.227-18.674-0.054-4.377-1.308-13.576-2.667-16.006-6.419-11.468-22.616-8.846-28.455-17.784-4.276-0.847-4.884-5.964-7.114-9.781-1.644 10.763 0.168 30.438 0.889 43.571-10.232-2.22-5.527-25.445-5.335-37.347 0.087-5.416-0.07-10.078 2.667-13.338 0.125-8.512 1.102-10.713 5.335-15.116-5.526-4.918-14.931-10.465-16.005-16.896-10.986-6.785-12.146-20.126-19.563-29.344-3.574-4.442-9.307-6.051-13.338-9.781-10.19-9.45-12.086-22.14-21.351-32.04 1.421-10.609-11.841-21.439-9.782-31.122 11.055-6.4 21.455 3.265 24.898 12.449 3.574-14.194 4.263-24.912 8.892-39.126 9.908-5.801 15.46-15.958 22.23-24.897 1.403 3.202 4.428 2.799 8.003 5.335 0.662 6.939-1.423 20.103-5.335 25.787-0.812 1.182-3.803 1.856-4.446 3.557-2.055 5.438 2.778 14.21-3.557 20.452 1.554 3.987 7.255 7.875 5.335 12.449 4.321-0.225 10.645-4.101 15.116-8.893-1.896-7.134 0.783-9.086 0-19.562-3.698-0.486-9.486 7.992-13.338 3.557 10.814-4.446 13.965-11.7 22.23-21.341-1.087-1.284-3.394-1.349-4.446-2.667 4.911-2.797 9.91-5.503 15.117-8.003 1.23-2.86 8.244-10.03 3.557-16.91zm40.016-188.51c-0.33 8.505 4.292 14.779 10.671 22.23 4.206 4.914 10.86 10.128 13.338 14.227 0.348 0.576-1.168 1.464-0.889 1.778 1.014 1.145 3.682 1.044 4.446 1.779 0.886 0.852 3.608 10.211 7.113 2.667-5.354-2.221-13.426-11.09-15.116-16.895 6.417 5.143 12.146 10.973 18.673 16.006-0.381-2.456 3.315-0.834 3.557-2.667-5.503-12.042-20.495-28.024-22.23-39.125 9.622 12.233 17.82 22.713 24.008 36.458 8.883-1.195 10.218-4.128 17.784-5.335-4.621-17.518-11.765-26.325-16.005-43.571-1.046-0.139-2.524 0.153-2.668-0.889 0.446-6.573 5.018-18.277 6.225-24.898 3.414 6.595 0.688 12.869-2.667 17.784 1.638 13.35 13.269 33.805 17.784 50.685 0.188-1.074 0.986-0.546 1.778 0 2.898-8.124-5.055-17.014-0.889-25.787 2.548 5.083 4.313 13.723 5.335 23.119 5.162 1.285 7.143-3.384 7.114 0 0.262-3.098 2.406 0.075 2.668-1.778-1.797-3.149-4.816-12.862-0.89-16.006 2.644 4.483 1.832 10.603 2.668 16.006 4.862-1.043 12.441-4.004 13.338-1.778 4.174-20.911 11.298-38.702 16.006-56.91 1.53-0.047 2.279 0.685 2.668 1.779-4.561 15.903-9.319 35.009-15.117 52.463 8.077 2.269 11.552-1.123 18.674 0-1.906-7.631 2.525-14.933 6.225-20.452 1.917 6.119-4.303 13.307 0.889 20.452 2.742-4.44 5.153-17.834 12.449-15.117-5.82 4.947-6.726 8.155-9.781 15.117 15.041 0.69 33.838 1.083 46.238 5.335 2.367-6.657 7.631-16.629 14.228-22.23-0.47 10.398-9.096 14.279-11.56 24.008 2.792-0.42 2.349 2.394 4.446 2.668 14.68-24.246 22.02-39.946 30.233-66.691-5.439-4.939-8.324-17.106-16.006-19.562-5.366-1.716-14.061 3.635-18.674 3.557-7.915-0.135-14.49-3.989-19.562-5.335-13.547-3.595-31.823-9.668-43.571-8.892-4.556 0.301-10.179 3.345-13.338 3.557-12.827 0.858-24.223 6.989-37.347 10.67-6.094 1.709-15.541 6.262-23.12 7.114-16.103 1.811-20.02 1.366-32.012 5.335-5.397 6.649-11.414 11.521-15.116 17.784 1.528 1.14 1.102 4.233 3.557 4.446 1.561-1.403 1.845-4.083 4.446-4.446-1.805 2.641-0.765 8.127-4.446 8.892-0.364 2.142 1.624 1.933 0.889 4.446 15.661 13.683 29.427 29.261 42.682 45.35-1.224-0.039-1.953 0.418-2.667 0.889-15.96-12.537-22.6-26.155-36.47-38.223zm-21.34-10.671c-4.614 9.73-7.761 16.348-9.781 29.344 10.852 3.972 19.252 15.127 29.344 16.895-8.597-8.298-19.609-14.181-24.897-25.787 6.334-0.771 9.483 2.202 17.784 5.335-1.324-8.366-4.534-16.557-7.114-26.676-2.72-0.65-2.61 1.529-5.33 0.884zm201.85 114.7c2.916 1.688 3.009 6.451 7.113 4.446-4.58-29.576-5.476-50.042-7.113-74.693-21.88-9.496-46.899-8.828-67.58-8.003-25.946 1.035-53.856 7.038-72.026 17.784 0.542 0.05 1.053 0.133 0.889 0.889-1.696-1.669-1.609 0.527-4.446 0 0.911 4.86-0.928 5.873-3.557 8.003 2.131 0.525-2.311 1.711-1.778 3.557 3.735-0.979 2.956-1.176 4.446-3.557h1.778c-0.347 1.269-1.067 1.5 0 2.667-3.685 1.332-6.464 7.727-3.557 7.114-3.311-1.232 2.618-0.134 1.779-1.778-0.494 0.003-1.01-0.72 0-0.889 0.69 0.199 1.754 0.024 1.778 0.889-1.774 4.311-2.429 4.213-4.446 8.003 3.802 1.371 4.533-4.873 6.225-2.668-1.871 4.652-3.664 5.863-4.446 9.782 3.802 1.194 4.533-5.223 6.225-0.889-2.865 1.847-4.503 6.068-3.557 8.002 0.05-0.542 0.133-1.052 0.889-0.889-0.003 0.494 0.72 1.01 0.889 0-2.115-0.262 0.988-2.406 1.778-2.667 1.313 4.806-5.111 6.996-0.889 8.892 0.813-0.606 0.507-3.886 4.446-3.557-0.936 3.013-1.389 5.411-4.446 7.113 2.098 0.754-2.45 2.19-0.889 5.335 1.33-0.151 3.282 0.318 3.557-0.889-2.115-0.262 0.988-2.406 1.779-2.667 1.995 3.928-5.547 7.485-1.779 10.67 0.804-1.568 1.989-2.754 3.557-3.557 0.876 4.216-2.631 5.72-3.557 10.671 2.792 0.42 2.35-2.394 4.446-2.668 2.93 4.738-4.842 6.262-3.557 9.781 3.44 0.985 3.163-3.143 5.335-0.889-1.873 3.697-2.661 5.107-4.446 8.892 3.134-1.894 9.892-6.229 9.781-8.003 22.387-10.844 39.831-16.258 62.245-19.562-3.472-20.513-8.047-51.281-6.225-71.137 4.355 22.242 5.997 51.546 8.003 71.137 4.479 0.13 10.938-2.422 11.56 0 15.36-1.33 36.62-2.25 49.8 5.37zm-140.5 34.68c-0.15 2.226 1.366 2.783 2.667 3.557 7.526-7 14.984-18.802 24.009-21.341-8.384 7.797-21.619 18.624-24.009 26.676 6.364-6.09 13.379-16.256 20.452-18.673 0.045 2.5-3.873 2.434-1.779 4.446-8.487 4.258-14.028 11.462-19.562 18.673 7.248-4.822 11.207-12.789 17.784-16.006-1.091 2.107-3.148 6.188-1.778 8.003-2.58 0.796-3.707 1.773-6.225 4.446-2.293 2.435-8.846 8.416-7.113 11.56 0.672-2.525 5.312-4.023 3.557-6.225 5.852-1.113 4.11-6.463 9.781-8.892 0.347 3.498-4.135 5.395-6.225 8.892 3.362 1.288 1.707-2.443 4.446-1.778-0.016 4.199 4.883 7.11 3.557 9.782-2.097-0.275-1.654-3.088-4.446-2.668-0.521 1.85-1.869 2.874-2.668 4.446 3.255 2.623 9.117 1.271 10.671 3.557-1.498 3.239-4.933-0.621-6.225 0.89 1.742 1.899-10.185 4.32-8.892 8.002 3.982 0.099 6.509-5.899 9.781-3.557-3.237 0.86-8.79 4.052-11.56 8.003 8.012-2.765 13.992-8.744 20.452-6.225-5.82 2.776-10.133 7.059-16.006 9.781 1.221 2.027-2.292 3.343 0 3.558 0.05-0.543 0.133-1.054 0.889-0.89-0.758 1.02 3.258-1.147 1.778-2.668 5.389 0.625 7.321-6.878 11.56-4.445-4.909 2.512-11.987 7.562-12.449 11.56 3.632-3.198 9.122-9.239 14.228-8.003-3.894 1.44-7.319 3.352-9.781 6.225 1.667 0.213-0.504 1.464 0.889 1.778 3.748-3.839 7.756-6.119 14.228-8.893-4.274 6.472-14.001 7.049-16.006 14.228 3.725-3.389 8.733-5.494 12.449-8.892 1.734 3.408-7.238 7.094-8.892 7.113 1.221 2.026-2.292 3.343 0 3.557 2.693-1.746 8.104-8.265 10.67-4.446-2.171-2.254-1.895 1.875-5.335 0.89 0.808 4.587-3.727 0.295-3.557 5.335 2.751-0.806 4.898-2.216 7.114-3.557-1.804 3.66 2.156-2.115 2.667 2.668 1.305-1.585-0.557-3.483 1.778-5.336 1.232 0.546 0.134 3.424 1.778 3.558 1.03-1.86-0.415-3.342 2.668-4.446-0.995 1.28-0.959 2.17 0.89 2.668 1.041-1.331 1.105-3.638 2.667-4.446-0.722 4.823 2.59 1.081 3.558 0-0.028 2.695 4.474 0.86 4.445 3.557-1.09 2.467-2.955 4.159-4.445 6.225 1.28 0.497 2.17 1.387 2.667 2.668 2.72 0.645 2.615-1.535 5.335-0.89-0.248 2.026 0.215 3.343 1.779 3.557 1.967-1.28-1.12-2.17 0.889-2.667 0.188 1.074 0.986 0.547 1.778 0 1.233 0.545 0.134 3.423 1.778 3.557 0.051-0.543 0.133-1.053 0.89-0.89-0.003-0.892 0.72-1.059 0.889-1.778-14.717-2.679-5.892-17.958-2.667-22.23 4.835-0.178 5.787-3.889 6.225-6.225-1.337-1.331-3.745-1.591-4.446-3.557 0.647-9.039 4.6-11.195 6.225-17.784-5.299-2.257-2.871-7.09-6.225-8.002 2.065-0.602 2.38-2.955 4.446-3.557 0.212 1.269 1.464 1.5 1.778 2.668-0.966 0.212-2.136 1.464-0.89 1.778 0.498-1.281 1.387-2.17 2.668-2.668-0.995 1.281-0.959 2.17 0.889 2.668-0.002-0.494 0.721-1.01 0.89 0-2.373 1.815-1.976 2.249-2.668 4.446 1.567 2.705 2.754-2.427 3.557 0-4.84 3.082 1.466 5.203 1.779 11.56 0.293 5.95-6.434 13.158-0.89 16.895 1.251 0.844 5.48-2.886 7.113 0.89-14.399-0.694 7.139 3.222 7.114 0.889 1.94 2.449 2.423 4.524-0.89 6.225 1.874-1.86-1.171-3.342-2.667-4.446-9.303-2.84-16.077 6.171-12.449 11.561 7.36-3.533 2.833 9.113 8.892 2.667-2.076 3.237 0.34 3.07 3.558 4.446-2.923 3.358-19.916 5.541-21.342 3.557 2.11 4.856 16.589 1.238 14.228 12.449-6.483 0.059-5.076-2.358-11.56-1.778-1.962-6.956-14.169-2.674-13.338-8.893-5.058 0.019-4.507-5.57-9.781-5.335-4.877 7.278 1.931 15.954-2.668 20.452-0.011-1.176-1.559-0.813-1.778-1.779 3.968-2.608-7.767-7.908-1.778-11.56-3.582 0.025-5.082-2.031-6.225-4.445 2.154-0.423 3.933 3.171 5.335 0-3.841-0.013-4.311-3.396-5.335-6.225-2.6 1.435 1.418 4.583-0.889 5.335-3.5 1.425-0.309-3.84-2.667-3.557-1.276 3.169-5.806 3.086-7.114 6.225 1.281 1.968 2.17-1.119 2.667 0.889-1.169 1.796-2.833 3.095-3.557 5.336 2.027-0.249 3.342 0.214 3.557 1.778-5.979-0.282 0.348 15.916 0 21.341 1.681 0.198 1.962-1.002 3.557-0.89-1.471 2.341 0.582 2.995-0.889 5.336 2.792 1.479 3.633-3.308 4.446-0.89 0.249 0.631-3.86 4.93 0 6.225 0.101-1.085 0.266-2.105 1.778-1.778 0.273 2.986-1.187 7.708 2.667 7.113 2.388-5.951 1.508 2.226 3.557 4.446 1.239-1.133 0.387-4.355 2.668-4.446 1.023 2.491 1.023 4.622 0 7.114 5.04 0.17 0.749-4.365 5.335-3.558-0.175 2.627-1.918 5.964 0.89 7.114 1.667-0.213-0.505-1.464 0.89-1.778h2.667v3.557c3.385-3.245 4.984 2.98 5.335 3.557 2.835 0.76 3.376-0.774 4.446-1.778-0.38 2.456 3.315 0.835 3.557 2.668-0.733 5.49 12.539 14.14 23.12 9.781 0.09 0.997-1.292 1.384 0 1.778 8.537-2.257 17.106-9.605 19.562-14.228 30.382-16.88 39.174-43.414 24.897-68.469 4.668-2.174 3.806 4.577 7.114 0.889 0.279 3.713-1.896 4.357 0 7.114 0.497-1.849 1.387-1.885 2.667-0.89-0.906 1.168-0.872 3.278-1.778 4.446 4.014-0.443 1.763 3.325 1.778 6.225 0.069 12.521-1.741 23.114-12.448 36.457-4.003 4.987-10.034 12.331-16.006 15.117-0.749 0.349-5.342-0.369-2.668 1.778-6.439 0.623-6.192 6.568-9.781 8.003-5.905 6.014-18.273 9.958-27.565 7.113-12.208-3.737-18.091-16.394-27.565-17.784 0.482 0.071 1.018 0.662 0 0.89-13.245-10.312-22.373-22.11-26.676-33.79-2.889-7.84-3.319-16.858-4.446-26.677-8.227-1.58-11.493 10.863-12.449 10.671 3.791-2.434 5.99-6.459 9.781-8.893 0.05 0.543 0.133 1.053 0.889 0.89-3.503 3.871-10.175 8.91-9.781 15.116 2.012-2.138 2.997-5.302 6.225-6.225-2.256 5.579-6.688 8.172-6.225 13.339 2.157-3.771 4.147-7.709 8.003-9.782-1.162 4.751-8.42 10.736-6.225 14.228 0.237-3.08 8.553-11.35 6.225-6.225-0.79 1.738-7.426 8.99-4.446 11.561 1.588-2.732 2.369-7.05 7.114-9.781-1.579 3.936-4.671 7.157-4.446 11.56 1.78-1.776 2.597-4.517 5.335-5.336 0.474 2.625-4.747 7.803-3.557 10.671 0.05-0.543 0.133-1.053 0.889-0.89 0.515 1.953 0.985-4.354 4.446-4.445-1.412 3.372-4.714 7.878-2.667 8.892 0.272-1.214 2.086-3.812 3.557-6.225 2.307 4.423-3.584 7.434-2.667 13.339 4.584-1.402 2.356-5.151 7.114-7.114-1.024 3.369-2.164 6.68-3.557 10.671 4.8-1.185 2.042-5.466 7.113-7.114-1.425 5.165-2.275 6.567-3.557 10.671 1.225-0.038 1.952 0.419 2.667 0.89 0.815-1.865-0.228-4.691 4.446-4.446-3.169 2.913-1.649 4.2-2.667 7.113 4.268 0.657 3.706-2.878 4.446-3.557h1.778c-0.479 2.41-0.712 2.214-1.778 5.335 8.664-6.062 1.709 7.343 8.892 0.89-1.006 2.792 0.255 2.349-0.89 4.446 3.547 0.878 2.679-2.657 6.225-1.779-0.378 1.696-2.54 1.609-1.778 4.446 2.066 2.148 2.381-1.389 4.446-1.778 0.203 3.63 1.452 3.771 4.446 0.89-1.552 1.812 0.662 1.743-0.89 3.557 13.62 4.812 13.956 3.764 23.119 9.781 1.042-1.33 1.105-3.637 2.668-4.446 1.238 1.133 0.387 4.355 2.668 4.446 1.674-1.567-1.216-2.754 1.778-3.557 2.423 3.556 3.048 3.305 3.557 1.778 1.35-4.049 2.597 0.982 4.446 0.889 1.27-0.063 2.711-5.197 3.557-3.557-1.8 4.668 2.717 0.636 4.446-0.889 0.085 1.396-0.119 3.083 1.778 2.667 3.172-0.679-0.864-4.214 4.446-3.557-0.195 1.117-1.386 1.817 0.889 1.778 1.141-3.704 2.472-1.676 5.335-2.667 0.668-0.231 0.912-2.3 1.779-2.668 0.886-0.376 1.361 1.233 2.667 0.889 2.659-0.698 2.506-7.445 5.336-2.667 2.477-5.635 13.059-7.542 13.338-12.449 10.418-6.465 17.51-14.093 22.23-24.009 6.404-13.454 1.678-36.575-0.89-47.128-1.204-4.944-4.51-11.879-3.557-16.895 0.797 0.787 1.382 6.185 2.667 3.557 0.481-1.361-4.619-6.394-1.778-9.781 2.415-0.637-0.636 4.192 1.778 3.557 0.436-12.152 5.463-20.853 13.339-28.455-3.105-3.691-5.605-3.784-8.893-2.667-1.77 7.795-1.152 12.139-7.113 16.006 0.372-2.273 1.34-3.886 2.667-7.114-1.046-0.139-2.523 0.153-2.667-0.889-1.4-7.72-2.434-18.176 1.778-24.008-0.014 1.165-2.467 1.133-2.668 0 4.28-4.595-1.585-11.362 0-16.006-10.394-13.128-36.026-12.74-51.574-12.449-33.9 0.635-74.616 13.092-91.588 37.347 2.781-8.488 13.859-13.403 16.895-18.673-8.68 4.86-16.63 13.11-19.62 18.67zm14.23 5.34c-5.883 1.23-7.87 6.358-11.56 9.781 4.38 0.61 7.86-6.81 11.56-9.78zm-8.89 22.23c-2.425-2.41 2.3-2.213 1.778-5.335-4.692 1.381-4.963 5.567-1.778 6.225-2.793-0.422-3.633 1.108-4.446 2.668 2.949 1.402 2.668 3.181 1.778 5.335 4.968-2.146 9.708-4.52 13.338-8.003-5.051-1.223-5.26-2.608-8.892 0.89 1.399-1.86 2.114-3.343 0.889-4.446-0.5 1.28-1.39 2.17-2.67 2.67zm4.44 16c2.828-1.614 6.595-3.99 8.003-4.445-1.281 0.475-2.17-3.466-2.667-0.89 0.78-0.05-8.17 6.18-5.33 5.34zm149.39-20.45c0.013-2.375 3.759-7.139 1.779-8.893-1.6 3.38-5.43 7.08-1.78 8.89zm-173.39 35.57c-0.811 2.162-0.806 15.28 2.668 18.673 3.44 0.594 3.163 0.003 5.335 0.89 0.994-17.7 10.748-47.023-8.003-62.245-2.217 2.729-7.444 10.234-3.557 13.339 2.067-2.439-0.221-3.718 3.557-4.446 4.181 3.529 3.82 9.733 6.225 13.338 1.197 1.794 4.094 2.341 4.446 4.446-0.018-0.104-2.544 3.556-2.668 4.445-0.312 2.247 3.132 6.243-0.889 7.114-0.264-4.701-1.103-4.703-1.778-8.003-9.008 3.929 3.988 10.986 1.778 16.006-7.618-4.26-10.775-17.317-2.667-23.119-0.855-3.198-3.091-5.997-3.557-7.114-5.48 5.23-6.08 20.57-0.88 26.68zm25.78-38.23c2.991 0.619 2.915-1.828 4.446-2.667-1.667-0.213 0.504-1.465-0.889-1.779-0.6 2.07-2.96 2.38-3.56 4.45zm143.17 3.55c-4.582 8.132-2.802 27.821-0.89 35.568 11.95-5.383 9.963-28.173 5.335-34.679 0.72 7.964-0.42 17.578-5.335 18.673 1.29-4.06 6.56-14.51 0.89-19.56zm-175.18 19.56c-0.34-3.889 3.524-5.59 0-8.003-1.02 1.13-1.79 7.01 0 8zm-97.812 80.92c0.421 2.793-1.109 3.634-2.668 4.446-0.756-2.938-0.314-11.903-4.446-16.006-5.632 1.902-13.672 5.526-15.117-1.778 9.451 5.985 19.629-5.206 18.673-17.784-2.057-2.52-6.28-0.246-8.003-4.446 8.827 1.962 19.247-11.355 16.895-25.787-1.696-0.378-1.609-2.54-4.446-1.778-1.446 2.479-3.15 8.197-6.225 6.225-1.807 8.279-10.749 9.406-14.227 16.006-6.079 11.534-3.793 24.985-8.003 37.347 1.046 0.139 2.524-0.152 2.667 0.89-0.982 0.602-4.613 2.955-2.667 3.557 1.144-0.448 1.838-0.939 4.446-1.778-0.463 1.315-1.315 2.241-1.778 3.557 3.362 1.287 1.707-2.443 4.446-1.778 3.403 2.057-5.765 4.752-0.889 5.335-0.158-1.946 3.004-2.18 3.557-1.778-0.497 2.467-3.06 2.868-3.557 5.335 3.273 1.129 4.021-4.777 6.225-1.778-0.602 2.066-2.955 2.381-3.557 4.446 3.44 0.985 3.163-3.144 5.335-0.89-0.464 2.217-0.099 4.363-1.778 7.114 2.948 2.645 3.857-2.812 5.335-0.89-1.847 3.586-5.463 12.037-9.781 16.006-0.834-5.575 2.723-6.762 3.557-10.67-1.982-7.189-5.923-9.217-10.67-15.117-10.553-13.115-14.403-31.983-26.676-19.562 2.696 5.307 6.751 9.255 9.781 14.228-3.309 7.747 5.216 7.789 2.667 12.449 2.877 1.099 0.68-2.877 3.557-1.778 0.737 2.321-2.689 4.878 0 6.224 0.188-0.997 0.987-1.384 1.778-1.778 0.604 2.455 0.161 2.029 2.667 3.558-1.25 0.231-1.014 1.95-1.778 2.667 3.703 0.805 0.106 3.39 1.778 6.225 4.963-1.854 2.522 1.233 3.557 2.668 0.365-1.118 1.147-1.817 2.668-1.778 0.531 1.583-2.606 3.692 0 4.445 1.239-1.132 0.387-4.355 2.667-4.445 0.514 2.375-2.63 5.556 0 7.113 1.05-1.32 0.77-3.973 3.557-3.557-0.906 1.168-0.872 3.278-1.778 4.446 6.225-2.258 3.708 4.799 8.892 8.002 1.693-1.863 2.897-4.217 4.446-6.224-0.243 4.711-5.082 7.859-0.889 9.781 1.792-2.654 1.277-7.615 5.335-8.003-1.706 5.147-5.182 11.323-2.667 14.228 0.819-1.954 0.379-7.057 4.446-8.003-1.939 2.803-2.139 7.345-2.667 11.56 2.921 2.118 2.716 7.361 7.114 8.003 0.568-3.118 0.67-5.517 3.557-8.003 2.508 3.331-7.024 10.822 0 13.338 1.131-6.079 1.069-10.229 4.446-12.449-1.309 5.467-1.663 9.053-4.446 14.228 5.632 6.196 8.087 8.271 10.671 12.449 7.741-2.087 2.227-11.328 8.892-14.228 0.172 6.846-8.792 13.681-0.889 18.674 1.386-7.955-1.34-15.203 5.335-16.896 1.221 2.026-2.292 3.343 0 3.557 0.735-2.078 3.115-1.896 4.446-0.889-1.151 2.592-2.147 5.258-0.89 6.225 1.524-1.441 0.344-5.585 3.557-5.336 1.805 6.129-7.593 18.28-2.667 22.23 3.516-9.938 0.301-14.403 6.224-20.452-1.035 8.706-4.009 18.862-5.335 27.565-4.146 0.588-3.937-3.177-7.114-3.557 1.58 6.162 8.844 5.347 13.338 5.336-1.316-6.83 3.151-12.925 1.778-17.784-4.592 6.143-1.938 9.599-4.446 16.895-3.137-4.932 0.768-9.092 1.778-13.338 0.964-4.053-0.672-12.014 5.335-13.339-1.677 3.171-2.066 6.797-2.668 8.893 3.446 0.481 0.77-5.159 3.557-5.335 0.333 2.038 3.557 1.186 4.446 2.667-3.084 6.285-1.92 12.108-5.335 18.674-2.525-5.51 3.009-10.568 0.889-15.116-2.986 4.052-3.188 10.611-3.557 16.005 4.495 0.108 6.765-0.228 9.782-3.557-3.572-3.941-3.964-11.892 0.889-15.116-0.454 5.249-2.494 10.098-0.889 14.228 2.991-3.599 1.737-7.105 5.335-8.893-0.478 1.86-1.559 3.343 0.889 4.446 0.615-2.065 0.705-3.758 2.668-6.225 1.232 0.545 0.134 3.423 1.778 3.557 1.232-0.545 0.134-3.423 1.778-3.557-1.201 15.829-20.198 23.183-34.679 19.562 2.737 6.076 9.659 9.304 14.228 8.893-1.516 0.364 0.187 1.146 0 2.667-2.792 1.006-2.35-0.255-4.446 0.89 1.03-3.748-6.542-3.469-6.224-3.557 2.883 1.629 3.16 7.352 0 11.56-2.226 1.174-2.784-3.516-3.557-0.89 4.644 8.224 25.006 8.39 32.901-2.667-2.253-2.398-0.701-3.452-1.778-6.225 3.796-5.096 3.674-14.11 9.781-16.896-1.175 5.168-4.54 11.564-3.557 17.784 11.324-14.023 7.814-23.926 12.449-42.682-4.947-0.099-1.794-2.191-6.225-2.668 0.961-3.205-0.104-8.812 0-10.67 3.11 0.189 0.521 10.69 3.557 8.003-0.431-1.433 0.55-8.558-1.778-10.671 4.977 1.085 0.916 10.265 4.446 10.671 1.984-4.911-2.766-12.427-2.668-15.117 3.891 2.246 3.565 8.659 5.335 10.671 2.652-7.342-5.441-11.587-1.778-14.228 2.486 2.644 1.879 7.553 4.446 9.781 2.744-5.28 2.221-9.534 0.889-13.338 1.402 0.081 0.696 2.268 2.668 1.778 3.842-14.956-9.157-27.335-1.778-40.903-5.996-12.698-1.884-21.064-3.557-33.79-8.388-2.937-6.878-13.975-13.338-16.896-6.517 2.322-8.989 9.511-8.892 16.006 6.131 3.947 9.085 11.07 16.005 14.228-4.029 4.086-7.384 2.418-11.56 0.89-3.208 7.122 4.792 14.545 11.56 16.895-0.494 0.003-1.009-0.72 0-0.89 0.746 3.701 7.176 1.717 6.225 7.114-7.681-1.22-13.828-8.688-18.673-9.781 1.556 5.688 10.614 8.177 9.781 13.338-5.897-1.925-13.628-6.371-11.56-13.338-11.007-0.708-13.527-10.145-25.787-11.56-1.259-3.484-0.614-8.871-2.667-11.56-6.939 2.08-12.36 8.498-16.895 2.667 5.491-1.586 16.997-3.352 16.895-13.338-2.654-2.133-4.188 4.043-4.446 0-1.229 2.758-4.106 3.474-5.335 0.889 7.08-4.35 15.522-8.66 15.117-16.005-0.602 1.944-2.955-1.685-3.557-2.668 9.508-1.745 25.406 1.807 27.565-12.449-5.208 3.604-12.846 8.181-16.006 2.668 1.577-1.387 1.562-4.366 4.446-4.446 0.244 2.607-3.562 3.303 0 4.446 1.291-0.744 7.449-1.233 8.892-4.446-8.991 0.655-10.191-2.296-17.784-1.778-1.56 3.813-3.474 4.399-6.225 5.335 0.92-2.34 3.526-2.995 4.446-5.335-8.562 3.153-16.902 10.746-18.673 17.784-1.752 0.349-4.309 7.527-7.113 9.781 4.972 10.391 1.341 19.983-3.557 29.344-3.601 0.94-8.667 5.89-12.466 1.79zm184.06 31.13c-10.798-8.366-34.66-10.103-45.35-19.563 0.494-0.002 1.009 0.721 0 0.89-4.498-3.801-8.45-8.148-14.227-10.671-0.599-3.679-3.452-4.924-5.335-8.003-4.849-7.926-4.797-20.333-8.892-27.565-2.323 2.255-0.863 5.663-5.335 7.114-0.127 17.05-1.168 28.893 8.002 39.125-17.444 2.091-20.912-17.317-20.452-40.015-8.264 0.501-5.888 9.354-5.335 16.896 1.326 18.092 0.063 36.313 2.667 51.574 26.806 20.189 57.276 23.6 85.364 14.227-20.903-8.972-35.546 1.562-48.017-3.557 11.82-4.303 26.387-1.372 36.458-4.446-2.017-1.919-3.146-5.909-6.225-8.892-20.249-4.064-62.739 8.777-66.69-19.562 4.695-2.475 4.364 4.19 8.892 7.113 11.396 7.357 36.215-1.466 48.906 4.446 2.545 1.195 8.408 1.596 14.228 3.557 8.208 2.765 22.485 14.77 32.011 10.671-3.43-4.81-6.96-10.48-10.67-13.35zm-122.71-41.8c-2.66-0.601-0.576-5.945-3.557-6.225-1.88 1.61 1.51 8.7 3.56 6.22zm0 15.12c-1.222-5.64 5.052-11.65-1.779-13.338 0.42 6.21-2.81 9.66 1.78 13.34zm159.17 23.12c-12.651 4.925-23.056 2.376-33.79 3.558 4.387-0.625 1.938 5.698 8.003 5.335-2.574 3.127 4.603 3.427 3.558 5.335 3.76-0.89 16.68-7.25 22.23-14.24zm-26.67 58.69c8.932 1.544 8.357-11.073 15.116-16.896-7.559-4.329-17.664-6.771-24.009-10.67 0 8.92-1.99 25.69 8.89 27.57zm16.89 0.89c-5.849 2.862-2.771 4.438-1.778 7.114 6.323 17.046-5.265 44.039-22.23 58.688 1.093 13.045 10.723 22.849 10.671 34.679 8.29-6.683 11.374-16.998 15.116-25.787 4.31-10.119 5.859-24.429 6.225-33.789 0.596-15.267-6.015-30.25-8.892-45.351-0.79-4.146 3.562-7.695 1.778-13.338-4.338 5.556-4.479 11.538-8.893 15.117 0.693 0.196 1.033 0.745 0.89 1.778 2.12 0.54 6.45-1.12 7.11 0.89zm-183.18 8c1.999-5.169 1.941-11.366 0.889-15.116-0.955 4.69-4.349 10.84-0.889 15.12zm3.556 0.89c-0.65-3.186 3.091-9.037 0.889-10.671-0.697 2.78-4.393 11.02-0.889 10.67zm130.71 80.91c6.146-2.222 7.673-9.449 11.56-11.56 8.369-9.765 19.451-23.905 26.677-33.79 5.024-13.824 13.371-28.985 0-43.571-0.262 1.853-2.406-1.32-2.668 1.778 4.81 4.8 2.397 19.624-6.225 20.452-9.466 0.909-10.646-11.557-3.557-16.896 2.394 4.162-3.156 6.097 0 10.671 7.048-8.58 3.196-13.285-1.778-18.674h-5.336c-27.72 21.98-20.19 55.87-18.67 91.59zm14.23-243.64c3.145-0.411 5.532-1.581 7.113-3.557-5.701-1.55 1.12-6.663-2.668-8.893-1.3 4.6-7.91 6.53-4.44 12.45z"/>
		<path d="m170.95 107.5c0.715-0.471 1.443-0.928 2.667-0.889-13.255-16.088-27.021-31.667-42.682-45.35 0.735-2.513-1.253-2.304-0.889-4.446 3.681-0.765 2.641-6.251 4.446-8.892-2.601 0.363-2.885 3.042-4.446 4.446-2.455-0.213-2.029-3.306-3.557-4.446 3.702-6.263 9.719-11.135 15.116-17.784 11.992-3.969 15.909-3.525 32.012-5.335 7.579-0.852 17.026-5.404 23.12-7.114 13.124-3.682 24.52-9.812 37.347-10.67 3.159-0.211 8.782-3.256 13.338-3.557 11.748-0.776 30.024 5.297 43.571 8.892 5.072 1.346 11.647 5.2 19.562 5.335 4.613 0.079 13.308-5.272 18.674-3.557 7.682 2.457 10.566 14.624 16.006 19.562-8.214 26.745-15.554 42.445-30.233 66.691-2.098-0.274-1.654-3.088-4.446-2.668 2.464-9.729 11.09-13.61 11.56-24.008-6.597 5.601-11.86 15.573-14.228 22.23-12.4-4.252-31.197-4.645-46.238-5.335 3.056-6.961 3.961-10.17 9.781-15.117-7.296-2.718-9.707 10.676-12.449 15.117-5.191-7.145 1.028-14.333-0.889-20.452-3.699 5.519-8.131 12.821-6.225 20.452-7.122-1.123-10.597 2.269-18.674 0 5.798-17.455 10.557-36.561 15.117-52.463-0.389-1.094-1.138-1.826-2.668-1.779-4.708 18.208-11.832 35.999-16.006 56.91-0.896-2.226-8.476 0.735-13.338 1.778-0.836-5.403-0.024-11.523-2.668-16.006-3.927 3.144-0.907 12.857 0.89 16.006-0.262 1.853-2.406-1.319-2.668 1.778 0.029-3.384-1.952 1.285-7.114 0-1.022-9.396-2.787-18.036-5.335-23.119-4.166 8.773 3.788 17.663 0.889 25.787-0.792-0.546-1.59-1.074-1.778 0-4.516-16.88-16.146-37.334-17.784-50.685 3.356-4.916 6.081-11.189 2.667-17.784-1.207 6.621-5.779 18.325-6.225 24.898 0.144 1.042 1.622 0.75 2.668 0.889 4.241 17.247 11.384 26.053 16.005 43.571-7.566 1.207-8.901 4.14-17.784 5.335-6.188-13.745-14.386-24.224-24.008-36.458 1.735 11.101 16.727 27.083 22.23 39.125-0.242 1.833-3.938 0.211-3.557 2.667-6.527-5.033-12.257-10.863-18.673-16.006 1.69 5.805 9.762 14.674 15.116 16.895-3.505 7.543-6.227-1.816-7.113-2.667-0.764-0.734-3.432-0.634-4.446-1.779-0.279-0.314 1.237-1.203 0.889-1.778-2.478-4.099-9.132-9.313-13.338-14.227-6.379-7.451-11.001-13.726-10.671-22.23 13.85 12.072 20.49 25.69 36.44 38.237zm123.6-27.563c1.696 0.379 1.609 2.541 4.446 1.778 6.54-15.247 14.911-22.681 22.23-38.236-12.161 8.079-14.97 19.636-21.341 28.455-0.003-0.494 0.72-1.009 0.889 0-3.17 1.584-3.69 5.808-6.23 8.003zm-159.17-17.784c2.768-3.304-0.184-6.609 2.667-10.67-4.32 1.527-6.69 7.91-2.67 10.67zm5.33 1.778c1.677-1.382-1.275-3.465 0.889-5.335-4.69-1.437-4.42 5.575-0.89 5.335z" fill="#fff"/>
		<path d="m300.77 71.934c-0.169-1.009-0.892-0.494-0.889 0 6.371-8.818 9.18-20.376 21.341-28.455-7.319 15.555-15.69 22.989-22.23 38.236-2.837 0.763-2.75-1.399-4.446-1.778 2.55-2.195 3.07-6.419 6.23-8.003z"/>
		<path d="m265.2 167.97c-0.621-2.422-7.08 0.13-11.56 0-2.006-19.591-3.647-48.895-8.003-71.137-1.822 19.856 2.753 50.624 6.225 71.137-22.414 3.305-39.857 8.719-62.245 19.562 0.111 1.774-6.647 6.109-9.781 8.003 1.785-3.785 2.573-5.195 4.446-8.892-2.172-2.254-1.895 1.875-5.335 0.889-1.286-3.52 6.486-5.043 3.557-9.781-2.097 0.274-1.654 3.088-4.446 2.668 0.926-4.951 4.433-6.455 3.557-10.671-1.568 0.803-2.753 1.989-3.557 3.557-3.768-3.185 3.774-6.742 1.779-10.67-0.791 0.262-3.894 2.406-1.779 2.667-0.275 1.207-2.227 0.738-3.557 0.889-1.561-3.145 2.987-4.581 0.889-5.335 3.057-1.702 3.51-4.1 4.446-7.113-3.939-0.33-3.633 2.951-4.446 3.557-4.222-1.896 2.202-4.086 0.889-8.892-0.79 0.262-3.893 2.406-1.778 2.667-0.169 1.01-0.892 0.494-0.889 0-0.756-0.163-0.839 0.347-0.889 0.889-0.947-1.935 0.692-6.156 3.557-8.002-1.692-4.333-2.423 2.083-6.225 0.889 0.782-3.918 2.575-5.129 4.446-9.782-1.692-2.205-2.423 4.039-6.225 2.668 2.017-3.79 2.672-3.692 4.446-8.003-0.024-0.865-1.088-0.69-1.778-0.889-1.01 0.169-0.494 0.892 0 0.889 0.839 1.645-5.089 0.546-1.779 1.778-2.907 0.613-0.127-5.782 3.557-7.114-1.067-1.168-0.347-1.398 0-2.667h-1.778c-1.491 2.381-0.711 2.577-4.446 3.557-0.533-1.846 3.91-3.031 1.778-3.557 2.629-2.13 4.468-3.143 3.557-8.003 2.837 0.527 2.75-1.669 4.446 0 0.164-0.756-0.347-0.839-0.889-0.889 18.17-10.747 46.08-16.75 72.026-17.784 20.681-0.825 45.7-1.493 67.58 8.003 1.638 24.652 2.533 45.117 7.113 74.693-4.104 2.005-4.197-2.757-7.113-4.446-13.19-7.65-34.45-6.73-49.81-5.36z" fill="#fff"/>
		<path d="m194.06 189.31c-3.036 5.27-14.114 10.186-16.895 18.673 16.972-24.255 57.688-36.712 91.588-37.347 15.548-0.291 41.181-0.679 51.574 12.449-1.585 4.644 4.28 11.411 0 16.006 0.201 1.133 2.654 1.165 2.668 0-4.212 5.832-3.179 16.288-1.778 24.008 0.144 1.042 1.621 0.75 2.667 0.889-1.327 3.229-2.295 4.841-2.667 7.114 5.961-3.867 5.344-8.211 7.113-16.006 3.287-1.116 5.787-1.023 8.893 2.667-7.876 7.602-12.903 16.302-13.339 28.455-2.414 0.636 0.637-4.193-1.778-3.557-2.841 3.388 2.26 8.42 1.778 9.781-1.285 2.628-1.87-2.77-2.667-3.557-0.953 5.016 2.353 11.95 3.557 16.895 2.567 10.553 7.294 33.674 0.89 47.128-4.721 9.916-11.812 17.544-22.23 24.009-0.279 4.907-10.861 6.814-13.338 12.449-2.83-4.778-2.677 1.969-5.336 2.667-1.306 0.345-1.781-1.265-2.667-0.889-0.867 0.368-1.111 2.437-1.779 2.668-2.863 0.991-4.194-1.037-5.335 2.667-2.274 0.039-1.084-0.661-0.889-1.778-5.311-0.657-1.274 2.878-4.446 3.557-1.897 0.416-1.693-1.271-1.778-2.667-1.729 1.524-6.246 5.557-4.446 0.889-0.846-1.641-2.287 3.493-3.557 3.557-1.85 0.094-3.097-4.938-4.446-0.889-0.509 1.526-1.134 1.777-3.557-1.778-2.994 0.803-0.104 1.989-1.778 3.557-2.281-0.091-1.43-3.313-2.668-4.446-1.562 0.81-1.626 3.116-2.668 4.446-9.163-6.018-9.499-4.969-23.119-9.781 1.552-1.813-0.662-1.744 0.89-3.557-2.994 2.881-4.243 2.74-4.446-0.89-2.065 0.39-2.38 3.927-4.446 1.778-0.762-2.837 1.4-2.75 1.778-4.446-3.546-0.878-2.678 2.657-6.225 1.779 1.145-2.098-0.116-1.654 0.89-4.446-7.183 6.453-0.229-6.951-8.892-0.89 1.066-3.121 1.299-2.925 1.778-5.335h-1.778c-0.74 0.679-0.178 4.214-4.446 3.557 1.019-2.913-0.501-4.2 2.667-7.113-4.674-0.245-3.631 2.581-4.446 4.446-0.715-0.471-1.443-0.928-2.667-0.89 1.282-4.104 2.132-5.506 3.557-10.671-5.072 1.648-2.313 5.93-7.113 7.114 1.393-3.991 2.533-7.302 3.557-10.671-4.758 1.963-2.529 5.712-7.114 7.114-0.917-5.905 4.974-8.916 2.667-13.339-1.471 2.413-3.284 5.011-3.557 6.225-2.047-1.014 1.256-5.52 2.667-8.892-3.46 0.092-3.931 6.398-4.446 4.445-0.756-0.163-0.839 0.347-0.889 0.89-1.19-2.868 4.031-8.046 3.557-10.671-2.738 0.819-3.555 3.56-5.335 5.336-0.225-4.402 2.867-7.624 4.446-11.56-4.745 2.731-5.525 7.049-7.114 9.781-2.98-2.57 3.656-9.822 4.446-11.561 2.329-5.125-5.988 3.145-6.225 6.225-2.195-3.491 5.062-9.477 6.225-14.228-3.855 2.073-5.846 6.011-8.003 9.782-0.463-5.167 3.969-7.76 6.225-13.339-3.228 0.923-4.212 4.087-6.225 6.225-0.394-6.206 6.278-11.245 9.781-15.116-0.756 0.163-0.839-0.347-0.889-0.89-3.791 2.434-5.99 6.459-9.781 8.893 0.956 0.192 4.222-12.251 12.449-10.671 1.127 9.818 1.557 18.837 4.446 26.677 4.303 11.68 13.432 23.478 26.676 33.79 1.018-0.228 0.482-0.818 0-0.89 9.475 1.391 15.357 14.047 27.565 17.784 9.292 2.845 21.66-1.1 27.565-7.113 3.589-1.435 3.342-7.38 9.781-8.003-2.674-2.147 1.919-1.43 2.668-1.778 5.972-2.786 12.003-10.13 16.006-15.117 10.707-13.343 12.518-23.936 12.448-36.457-0.016-2.899 2.235-6.668-1.778-6.225 0.906-1.168 0.872-3.278 1.778-4.446-1.28-0.995-2.17-0.959-2.667 0.89-1.896-2.757 0.279-3.401 0-7.114-3.309 3.688-2.446-3.062-7.114-0.889 14.276 25.055 5.484 51.589-24.897 68.469-2.456 4.622-11.025 11.971-19.562 14.228-1.292-0.395 0.09-0.781 0-1.778-10.581 4.358-23.854-4.291-23.12-9.781-0.241-1.833-3.937-0.212-3.557-2.668-1.07 1.004-1.611 2.538-4.446 1.778-0.351-0.576-1.95-6.802-5.335-3.557v-3.557h-2.667c-1.395 0.314 0.777 1.565-0.89 1.778-2.808-1.15-1.064-4.487-0.89-7.114-4.586-0.808-0.295 3.728-5.335 3.558 1.023-2.492 1.023-4.623 0-7.114-2.281 0.091-1.429 3.313-2.668 4.446-2.049-2.221-1.169-10.397-3.557-4.446-3.854 0.595-2.394-4.127-2.667-7.113-1.513-0.327-1.678 0.693-1.778 1.778-3.86-1.295 0.249-5.594 0-6.225-0.813-2.418-1.653 2.369-4.446 0.89 1.471-2.341-0.582-2.995 0.889-5.336-1.595-0.112-1.876 1.088-3.557 0.89 0.348-5.425-5.979-21.623 0-21.341-0.214-1.564-1.53-2.027-3.557-1.778 0.723-2.241 2.388-3.54 3.557-5.336-0.498-2.008-1.387 1.079-2.667-0.889 1.308-3.139 5.837-3.056 7.114-6.225 2.358-0.283-0.832 4.981 2.667 3.557 2.307-0.752-1.71-3.9 0.889-5.335 1.024 2.829 1.494 6.212 5.335 6.225-1.402 3.171-3.181-0.423-5.335 0 1.143 2.414 2.643 4.471 6.225 4.445-5.988 3.651 5.746 8.951 1.778 11.56 0.22 0.966 1.768 0.604 1.778 1.779 4.599-4.498-2.209-13.174 2.668-20.452 5.274-0.235 4.724 5.354 9.781 5.335-0.831 6.219 11.376 1.937 13.338 8.893 6.483-0.58 5.076 1.837 11.56 1.778 2.361-11.211-12.117-7.593-14.228-12.449 1.426 1.984 18.419-0.198 21.342-3.557-3.218-1.376-5.634-1.209-3.558-4.446-6.059 6.446-1.531-6.2-8.892-2.667-3.628-5.39 3.146-14.4 12.449-11.561 1.496 1.104 4.541 2.586 2.667 4.446 3.312-1.7 2.83-3.775 0.89-6.225 0.024 2.333-21.514-1.583-7.114-0.889-1.633-3.775-5.862-0.046-7.113-0.89-5.544-3.736 1.183-10.944 0.89-16.895-0.313-6.357-6.619-8.478-1.779-11.56-0.803-2.427-1.989 2.705-3.557 0 0.692-2.197 0.295-2.631 2.668-4.446-0.169-1.01-0.892-0.494-0.89 0-1.848-0.498-1.884-1.387-0.889-2.668-1.281 0.498-2.17 1.387-2.668 2.668-1.246-0.314-0.076-1.566 0.89-1.778-0.314-1.168-1.566-1.399-1.778-2.668-2.066 0.602-2.381 2.955-4.446 3.557 3.354 0.912 0.926 5.746 6.225 8.002-1.625 6.589-5.577 8.745-6.225 17.784 0.701 1.966 3.109 2.226 4.446 3.557-0.438 2.336-1.39 6.047-6.225 6.225-3.225 4.272-12.05 19.552 2.667 22.23-0.169 0.72-0.892 0.887-0.889 1.778-0.757-0.163-0.839 0.347-0.89 0.89-1.645-0.134-0.545-3.012-1.778-3.557-0.792 0.547-1.59 1.074-1.778 0-2.009 0.497 1.078 1.387-0.889 2.667-1.564-0.214-2.027-1.53-1.779-3.557-2.72-0.646-2.615 1.534-5.335 0.89-0.497-1.281-1.387-2.171-2.667-2.668 1.49-2.065 3.355-3.758 4.445-6.225 0.028-2.696-4.474-0.861-4.445-3.557-0.968 1.081-4.279 4.823-3.558 0-1.562 0.809-1.626 3.115-2.667 4.446-1.849-0.498-1.885-1.388-0.89-2.668-3.083 1.104-1.638 2.586-2.668 4.446-1.645-0.134-0.546-3.012-1.778-3.558-2.335 1.853-0.474 3.751-1.778 5.336-0.511-4.783-4.472 0.992-2.667-2.668-2.216 1.341-4.363 2.751-7.114 3.557-0.17-5.04 4.365-0.748 3.557-5.335 3.44 0.985 3.164-3.144 5.335-0.89-2.566-3.818-7.978 2.7-10.67 4.446-2.292-0.214 1.221-1.53 0-3.557 1.654-0.02 10.626-3.705 8.892-7.113-3.716 3.397-8.724 5.503-12.449 8.892 2.005-7.179 11.731-7.756 16.006-14.228-6.471 2.773-10.479 5.054-14.228 8.893-1.394-0.314 0.778-1.565-0.889-1.778 2.462-2.873 5.888-4.784 9.781-6.225-5.106-1.236-10.596 4.805-14.228 8.003 0.462-3.998 7.54-9.048 12.449-11.56-4.239-2.433-6.171 5.07-11.56 4.445 1.48 1.521-2.536 3.688-1.778 2.668-0.756-0.164-0.839 0.347-0.889 0.89-2.292-0.215 1.221-1.53 0-3.558 5.873-2.723 10.186-7.005 16.006-9.781-6.46-2.52-12.439 3.46-20.452 6.225 2.77-3.951 8.322-7.143 11.56-8.003-3.272-2.343-5.799 3.655-9.781 3.557-1.293-3.682 10.634-6.103 8.892-8.002 1.292-1.511 4.727 2.35 6.225-0.89-1.554-2.285-7.416-0.934-10.671-3.557 0.799-1.572 2.147-2.596 2.668-4.446 2.792-0.42 2.349 2.393 4.446 2.668 1.326-2.671-3.572-5.583-3.557-9.782-2.74-0.665-1.084 3.066-4.446 1.778 2.089-3.497 6.572-5.395 6.225-8.892-5.671 2.429-3.929 7.779-9.781 8.892 1.756 2.201-2.884 3.7-3.557 6.225-1.732-3.144 4.82-9.125 7.113-11.56 2.518-2.673 3.645-3.65 6.225-4.446-1.37-1.815 0.688-5.896 1.778-8.003-6.577 3.217-10.537 11.184-17.784 16.006 5.535-7.211 11.075-14.416 19.562-18.673-2.094-2.012 1.824-1.946 1.779-4.446-7.073 2.417-14.088 12.583-20.452 18.673 2.39-8.052 15.625-18.879 24.009-26.676-9.025 2.539-16.482 14.34-24.009 21.341-1.301-0.773-2.818-1.331-2.667-3.557 3.07-5.51 11.02-13.76 19.64-18.62zm11.56 34.68c2.179-10.115 16.593-2.179 20.452-4.446-6.988-3.886-24.829-5.997-23.12 10.67-4.622-1.619-7.164 1.04-12.449 1.778 3.276 3.476 7.813 2.278 10.67-0.889 3.833 6.347 6.794-5.971 10.67-7.114 16.037-4.73 12.597 15.379 23.119 9.781-1.488-1.179-2.979-2.355-6.224-1.778 2.464-7.797-12.822-11.061-14.228-12.449-3.73 0.55-6.49 4.16-8.89 4.45zm71.14-37.35c3.265-0.693 2.837-4.155 1.778-6.224-1.92 2.58-1.19 2.3-1.78 6.22zm-58.69-1.78c2.856-0.782 1.218 2.931 3.557 2.667 1.675-1.568-1.216-2.753 1.778-3.557 1.183 1.498-0.471 4.933 2.668 6.225 3.023-6.064-5.928-7.347-8.003-7.114 1.07 0.18 0.54 0.98-0.01 1.77zm52.47-0.88c-6.042 0.042-2.849 3.793-5.335 7.114 0.543 0.05 1.053 0.133 0.89 0.889 1.046-0.14 2.524 0.153 2.667-0.889-0.58-1.18 2.04-5.34 1.78-7.11zm1.78 5.33c-0.542-0.051-1.052-0.133-0.889-0.89 3.372-1.113 4.613-4.975 1.778-6.224-1.24 1.51-4.06 7.8-0.89 7.11zm-40.91 4.45c0.576-3.396-1.031-10.896-4.446-8.892 3.64 0.81-0.02 8.91 4.45 8.89zm1.78 1.77c4.993-2.927 1.479-8.907-1.778-12.449 0.73 4.81 1.59 7.71 1.78 12.45zm-24.01-0.89c-1.232-0.546-0.134-3.423-1.778-3.557-0.497 2.576-1.387-1.364-2.667-0.889 0.068 3.802-2.931 4.532-2.667 6.224-3.506-4.185 1.453 6.227-4.446 4.446 0.393 3.918 1.599 3.643 1.778 6.225-1.269-0.213-1.5-1.464-2.667-1.779 1.011 3.349-0.851 4.05 1.778 5.335 1.378-6.045 5.501-8.157 13.338-8.003 6.47 6.22 13.23 9.646 20.452 13.338 4.049-4.872 1.791-7.333 0-13.338-5.999-1.743-7.483-6.708-13.338-5.335 0.314-2.968-3.02-2.957-5.336-5.335-0.139 1.046 0.153 2.524-0.889 2.667-0.671-1.475-2.112-6.686-3.558-4.446 1.48-0.38 1.48 4.87 0.02 4.46zm65.8 8.9c-4.714-1.068-15.241 11.237-7.113 15.117 0.412-1.179 0.423-2.356 4.445-1.778 1.79-4.22 11.674-9.528 17.785-10.671 2.687-0.502 8.281-0.779 8.002-0.889 2.164 0.85 2.282 5.322 5.336 4.446 4.866-2.319 2.734-6.33 0-9.781-2.5 1.86 0.143 3.342-2.668 4.446-0.763-2.837 1.4-2.75 1.778-4.446-3.71-2.174-1.616-3.244-8.003-5.335-2.405 2.154-0.029 3.933-3.557 5.335 0.203-1.585 1.7-3.483 0-5.335-1.894 5.646-1.343-4.664-3.557-0.889 2.292 0.214-1.221 1.53 0 3.557-7.25 1.32-9.55 0.5-12.45 6.21zm-19.56-2.67c0.892-0.003 1.059 0.72 1.778 0.889 0.262-1.813 2.406-1.744 2.668-3.557-0.892 0.002-1.059-0.721-1.778-0.889-0.26 1.82-2.41 1.75-2.67 3.56zm-12.45-0.89c-3.49 8.915 3.868 18.883 11.561 16.006-6.127-1.515-5.481-7.881-8.893-7.114 1.81-4.19 0.01-4.65-2.67-8.9zm16.9 12.45c-0.543-0.05-1.053-0.133-0.89-0.889 1.972 0.658 3.664-3.277 1.778-3.557-0.01 0.897-1.559 1.118-1.778 0 1.762-0.602 3.91-2.955 0.89-3.557-0.496 2.172-3.44 1.895-2.668 5.335 1.085 0.101 2.105 0.266 1.778 1.778-2.58-0.48 1.36 3.46 0.89 0.89zm22.23 4.45c0.54-0.101-13.136 4.864-8.893 9.781-0.223-8.643 21.95-10.612 22.23-0.889-11.126-11.982-22.266 3.494-28.455 8.002 3.821 0.021 1.953 1.626 4.446 3.558 6.86 1.06 19.175 3.741 21.341-3.558-3.276 4.205-0.95-4.668-6.225 0-2.017-3.122 1.875-2.924 0-5.335-0.887-0.901-4.848-0.335-6.225 0.889-0.388 0.762-1.967 3.124-3.557 6.224-2.516-0.152-6.1 0.766-6.225-1.778 5.271-1.146 6.861-8.609 12.449-9.781 9.12-1.912 11.781 4.284 11.56 8.893 7.677 2.591 12.093-3.821 15.117-6.225 1.145-9.523-2.099 0.098-8.893 3.557-2.72-9.37-10.96-14.78-18.68-13.34zm-18.68 16c0.096-5.552-0.615-7.307 1.778-11.56-6.49 1.12-6.42 7.94-1.78 11.56zm45.35-1.78c1.917 0.852 5.184 1.076 7.113-1.779-2.08-1.82-6.83-0.92-7.11 1.78zm-7.11 6.23c1.267-0.867 8.238 0.039 8.003-2.668-2.24-2.75-10.75 0.43-8 2.67zm3.56 2.67c5.285 0.617 6.23 0.005 11.56 2.668-1.673-5.659-8.058-4.909-9.781-4.446 0.494 0.003 1.009-0.721 0-0.889-0.22 1.27-1.47 1.5-1.78 2.67zm-26.68 4.44c-0.346-1.27-1.066-1.5 0-2.668-2.375 0.514-5.556-2.63-7.113 0 1.469 0.014 0.498 2.467 1.778 2.668 3.438 4.341 15.357 1.517 19.562 1.778 0.778-1.652 3.896-5.509 2.668-6.225-1.95 3.48-10.51 5.74-16.9 4.44zm-5.34 15.12c3.074 0.11 4.19-1.737 6.225-2.667-1.64-1.39-5.5 0.4-6.22 2.67zm18.68 0.89c0.01-1.176 1.559-0.812 1.778-1.778-4.701 0.772-0.125-2.172-3.557-2.668-5.267 1.563-10.005 8.356-15.117 7.113 2.594 0.249 3.057-0.214 1.778-1.778 3.521-0.628 6.462-1.838 8.003-4.445-5.164 0.17-6.567 4.103-10.67 5.335-0.438 2.792 3.064 2.349 0.889 4.446 2.764 0.162 5.027-2.101 3.557-3.558 5.91 0.59 5.66-6.22 13.34-2.66zm-4.45 9.78c1.075-0.188 0.547-0.986 0-1.778 4.248 0.098 4.658-3.641 8.003-4.446-6.693-1.062-5.903 5.359-11.56 5.335 2.838-3.978 8.721-4.914 11.56-8.892-5.485 0.458-10.564 6.014-13.338 6.225 2.461-2.28 4.759-4.726 8.003-6.225-2.695-0.138-12.104 3.923-14.228 7.113-0.825 1.24 0.599 4.593 0 5.336-5.19 6.439-8.421 2.73-8.893 0-1.796 3.706-8.336 5.289-13.338 6.224-0.486 3.107-1.381 4.865 0 8.893 6.502 0.921 5.349-1.749 10.671-4.446 1.102-0.559 5.39-0.393 6.224-0.889 5.162-3.075 6.048-8.512 8.893-8.893 4.741-0.634 5.876 8.357 5.335 12.449 1.33-0.151 3.281 0.317 3.557-0.89-0.693-2.473 1.169-6.5 1.779-8.003 1.81 0.881 7.538-1.916 8.892-4.445-2.757-0.09-4.248 1.087-6.225 1.778 0.921-2.341 3.525-2.995 4.446-5.336-4.089-1.371-4.497 5.512-7.113 2.668 2.429-1.162 7.269-4.542 6.224-6.225-3.02 0.03-5.86 5.03-8.87 4.45zm5.34 8.89c1.047 0.14 2.524-0.152 2.668 0.89h-1.778v1.778c0.997-0.09 1.384 1.292 1.778 0-0.543-1.402 0.499-3.181 1.778-5.335-2.8-0.43-3.64 1.1-4.45 2.66zm25.79-16.9c-0.543 0.05-1.053 0.133-0.889 0.889 2.375 2.135-0.612 5.869 3.557 8.003 0.638-2.936 1.558-5.219-1.778-8.003 0.542-0.05 1.052-0.133 0.889-0.889h-1.78zm4.44 1.78c-1.307-4.199-0.43-5.053-3.557-7.113-0.58 2.74 0.29 5.11 3.56 7.11zm-55.13 6.23c2.797 0.426 3.476-1.267 5.335-1.778-0.366-6.643-0.661-7.912-4.446-10.671-0.98 3.87 3.53 8.65-0.88 12.45zm-9.78 0c2.884-2.41 6.651 0.321 8.003-4.446-2.68-4.57-8.45 0.28-8 4.45zm-18.67 17.78c0.543 0.05 1.053 0.133 0.89 0.889-7.101-3.413-14.94-5.5-23.12-6.224 0.318 5.055 3.029 4.844 6.225 5.335 14.18 19.723 27.129 28.124 43.571 11.56 1.742-1.755 5.43-9.981 10.671-9.781 0.716-4.91 3.192-6.153 0-8.893-12.05 6.87-27.14 12.74-38.24 7.1zm54.24 0c1.782-0.08 5.127-3.06 2.667-4.446-0.28 2.1-3.09 1.66-2.67 4.45zm0.89 6.23c0.852-1.817 1.816-3.519 2.668-5.336-4.74-0.25-5.41 4.19-2.67 5.34zm-51.58 18.67c0.488 0.051 1.014 0.679 0 0.89-5.205-1.909-5.991-8.235-12.448-8.893 0.528 1.842-1.1 5.842 0.889 6.225 1.968-1.28-1.119-2.17 0.89-2.668 1.694 0.932-0.571 3.636 0 4.446 2.146 3.045 1.373-2.048 3.557-0.889 0.962 0.511 0.375 3.833 0.889 4.445 5.349 6.373 19.689 3.826 24.898 0 0.869-0.638 0.685-3.371 0.889-3.557 1.293-1.167 6.051-0.17 3.558-4.446-2.22 5.4-16.24 5.15-23.13 4.44zm-24.9-81.81c2.026 0.248 3.343-0.214 3.557-1.779-3.089-2.993-7.768 1.917-9.781 0 0.737 5.787-3.467 2.592-4.446 5.335 7.76 5.656 13.583 6.216 21.342 0.889-5.549 1.992-3.455-3.658-6.225-4.445-1.58 1.859 0.699 3.342-0.89 4.445-0.6-2.06-2.95-2.37-3.56-4.44zm-11.55 10.67c3.944 12.269 19.174 4.446 24.009-0.889-9.61 3.69-13.23 4.81-24.01 0.89z" fill="#F4E2CF"/>
		<path d="m182.51 232.88c1.225 1.104 0.51 2.586-0.889 4.446 3.632-3.498 3.841-2.112 8.892-0.89-3.63 3.483-8.37 5.857-13.338 8.003 0.89-2.154 1.171-3.933-1.778-5.335 0.813-1.56 1.653-3.09 4.446-2.668-3.185-0.657-2.914-4.844 1.778-6.225 0.521 3.122-4.203 2.925-1.778 5.335 1.28-0.49 2.17-1.38 2.67-2.66z" fill="#F4E2CF"/>
		<path d="m189.62 246.22c0.498-2.576 1.387 1.364 2.667 0.89-1.408 0.455-5.175 2.831-8.003 4.445-2.85 0.83 6.1-5.4 5.33-5.34z" fill="#F4E2CF"/>
		<path d="m214.52 219.54c1.405 1.388 16.691 4.651 14.228 12.449 3.245-0.577 4.735 0.6 6.224 1.778-10.522 5.598-7.082-14.511-23.119-9.781-3.876 1.144-6.837 13.461-10.67 7.114-2.857 3.167-7.394 4.364-10.67 0.889 5.285-0.738 7.827-3.397 12.449-1.778-1.709-16.667 16.131-14.557 23.12-10.67-3.859 2.267-18.273-5.669-20.452 4.446 2.39-0.29 5.15-3.9 8.89-4.45z"/>
		<path d="m218.07 183.08c2.075-0.233 11.026 1.049 8.003 7.114-3.139-1.292-1.485-4.727-2.668-6.225-2.994 0.803-0.104 1.989-1.778 3.557-2.339 0.264-0.7-3.45-3.557-2.667 0.56-0.78 1.09-1.58 0.01-1.77z"/>
		<path d="m273.2 182.2c2.835 1.25 1.594 5.111-1.778 6.224-0.163 0.757 0.347 0.839 0.889 0.89-3.16 0.69-0.34-5.6 0.89-7.11z"/>
		<path d="m226.97 184.86c3.415-2.003 5.022 5.496 4.446 8.892-4.48 0.03-0.82-8.07-4.45-8.89z"/>
		<path d="m209.18 190.2c1.445-2.24 2.887 2.971 3.558 4.446 1.042-0.144 0.75-1.621 0.889-2.667 2.316 2.378 5.65 2.367 5.336 5.335 5.854-1.374 7.339 3.592 13.338 5.335 1.791 6.006 4.049 8.466 0 13.338-7.222-3.692-13.982-7.118-20.452-13.338-7.837-0.154-11.96 1.958-13.338 8.003-2.629-1.286-0.768-1.986-1.778-5.335 1.168 0.314 1.398 1.566 2.667 1.779-0.18-2.582-1.385-2.307-1.778-6.225 5.898 1.78 0.939-8.631 4.446-4.446-0.263-1.692 2.735-2.422 2.667-6.224 1.281-0.475 2.17 3.465 2.667 0.889 1.645 0.134 0.546 3.011 1.778 3.557 1.44 0.39 1.44-4.86-0.02-4.46z"/>
		<path d="m287.43 197.31c-1.221-2.027 2.292-3.343 0-3.557 2.214-3.775 1.663 6.535 3.557 0.889 1.7 1.852 0.203 3.75 0 5.335 3.527-1.403 1.151-3.181 3.557-5.335 6.387 2.092 4.293 3.162 8.003 5.335-0.378 1.696-2.541 1.609-1.778 4.446 2.811-1.104 0.168-2.586 2.668-4.446 2.734 3.452 4.866 7.462 0 9.781-3.054 0.876-3.172-3.596-5.336-4.446 0.279 0.11-5.315 0.387-8.002 0.889-6.111 1.143-15.995 6.451-17.785 10.671-4.022-0.578-4.033 0.599-4.445 1.778-8.128-3.879 2.399-16.185 7.113-15.117 2.89-5.7 5.19-4.88 12.44-6.22z"/>
		<path d="m245.64 208.87c3.411-0.767 2.766 5.599 8.893 7.114-7.692 2.877-15.051-7.091-11.561-16.006 2.68 4.26 4.48 4.72 2.67 8.9z"/>
		<path d="m258.98 211.54c0.327-1.513-0.693-1.678-1.778-1.778-0.772-3.44 2.172-3.164 2.668-5.335 3.021 0.602 0.872 2.955-0.89 3.557 0.22 1.118 1.769 0.897 1.778 0 1.88 0.28 0.19 4.22-1.78 3.56-0.163 0.756 0.347 0.839 0.89 0.889 0.47 2.57-3.47-1.37-0.89-0.89z"/>
		<path d="m300.77 230.21c6.794-3.459 10.037-13.08 8.893-3.557-3.024 2.403-7.44 8.815-15.117 6.225 0.222-4.608-2.439-10.805-11.56-8.893-5.588 1.172-7.179 8.636-12.449 9.781 0.125 2.544 3.709 1.626 6.225 1.778 1.59-3.101 3.169-5.462 3.557-6.224 1.377-1.224 5.338-1.79 6.225-0.889 1.875 2.411-2.017 2.213 0 5.335 5.274-4.668 2.948 4.205 6.225 0-2.166 7.299-14.48 4.617-21.341 3.558-2.493-1.932-0.625-3.536-4.446-3.558 6.189-4.508 17.329-19.984 28.455-8.002-0.28-9.723-22.453-7.754-22.23 0.889-4.243-4.917 9.433-9.882 8.893-9.781 7.74-1.45 15.98 3.96 18.69 13.32z"/>
		<path d="m335.45 222.21c1.979 1.753-1.767 6.517-1.779 8.893-3.65-1.81 0.18-5.51 1.78-8.89z" fill="#F4E2CF"/>
		<path d="m161.16 240c0.466 1.117 2.702 3.916 3.557 7.114-8.108 5.802-4.95 18.859 2.667 23.119 2.209-5.02-10.787-12.077-1.778-16.006 0.676 3.3 1.514 3.302 1.778 8.003 4.021-0.871 0.578-4.867 0.889-7.114 0.124-0.89 2.65-4.549 2.668-4.445-0.352-2.105-3.25-2.652-4.446-4.446-2.404-3.604-2.044-9.809-6.225-13.338-3.778 0.729-1.489 2.007-3.557 4.446-3.887-3.104 1.34-10.609 3.557-13.339 18.75 15.222 8.997 44.545 8.003 62.245-2.172-0.887-1.895-0.296-5.335-0.89-3.474-3.393-3.479-16.511-2.668-18.673-5.19-6.1-4.59-21.44 0.89-26.66z" fill="#F4E2CF"/>
		<path d="m189.62 223.99c1.394 0.314-0.778 1.565 0.889 1.779-1.532 0.839-1.456 3.287-4.446 2.667 0.6-2.07 2.96-2.38 3.56-4.45z" fill="#F4E2CF"/>
		<path d="m307 237.33c1.009 0.168 0.494 0.892 0 0.889 1.724-0.463 8.108-1.213 9.781 4.446-5.329-2.663-6.274-2.051-11.56-2.668 0.31-1.17 1.56-1.4 1.78-2.67z"/>
		<path d="m295.44 240c1.229 0.716-1.89 4.572-2.668 6.225-4.205-0.262-16.124 2.562-19.562-1.778-1.28-0.201-0.31-2.654-1.778-2.668 1.558-2.63 4.738 0.514 7.113 0-1.066 1.168-0.346 1.398 0 2.668 6.39 1.3 14.95-0.96 16.9-4.44z"/>
		<path d="m297.21 276.45c-1.279 2.154-2.321 3.933-1.778 5.335-0.395 1.292-0.781-0.09-1.778 0v-1.778h1.778c-0.144-1.042-1.621-0.75-2.668-0.89 0.82-1.55 1.66-3.08 4.45-2.66z"/>
		<path d="m296.32 265.78c1.045 1.683-3.795 5.062-6.224 6.225 2.616 2.844 3.024-4.039 7.113-2.668-0.921 2.341-3.525 2.995-4.446 5.336 1.977-0.691 3.468-1.868 6.225-1.778-1.354 2.529-7.082 5.326-8.892 4.445-0.61 1.503-2.473 5.53-1.779 8.003-0.275 1.207-2.227 0.738-3.557 0.89 0.541-4.092-0.594-13.083-5.335-12.449-2.845 0.381-3.73 5.817-8.893 8.893-0.834 0.496-5.122 0.33-6.224 0.889-5.322 2.697-4.169 5.367-10.671 4.446-1.381-4.027-0.486-5.785 0-8.893 5.002-0.935 11.542-2.518 13.338-6.224 0.472 2.73 3.702 6.439 8.893 0 0.599-0.743-0.825-4.096 0-5.336 2.123-3.19 11.532-7.251 14.228-7.113-3.244 1.499-5.542 3.944-8.003 6.225 2.773-0.211 7.853-5.767 13.338-6.225-2.839 3.978-8.722 4.914-11.56 8.892 5.656 0.024 4.866-6.397 11.56-5.335-3.345 0.806-3.755 4.544-8.003 4.446 0.547 0.792 1.075 1.59 0 1.778 3 0.56 5.84-4.44 8.88-4.47z"/>
		<path d="m278.54 263.11c1.471 1.457-0.793 3.72-3.557 3.558 2.176-2.098-1.327-1.654-0.889-4.446 4.103-1.232 5.506-5.165 10.67-5.335-1.541 2.607-4.481 3.817-8.003 4.445 1.278 1.564 0.815 2.027-1.778 1.778 5.112 1.243 9.851-5.55 15.117-7.113 3.432 0.496-1.145 3.44 3.557 2.668-0.22 0.966-1.769 0.603-1.778 1.778-7.68-3.55-7.43 3.26-13.34 2.67z"/>
		<path d="m68.687 330.69c4.898-9.36 8.529-18.953 3.557-29.344 2.804-2.254 5.361-9.433 7.113-9.781 1.771-7.038 10.111-14.631 18.673-17.784-0.92 2.34-3.526 2.995-4.446 5.335 2.751-0.936 4.665-1.521 6.225-5.335 7.593-0.518 8.793 2.434 17.784 1.778-1.443 3.213-7.601 3.702-8.892 4.446-3.562-1.144 0.244-1.839 0-4.446-2.884 0.08-2.869 3.06-4.446 4.446 3.16 5.513 10.797 0.937 16.006-2.668-2.159 14.256-18.057 10.704-27.565 12.449 0.602 0.983 2.955 4.612 3.557 2.668 0.406 7.345-8.037 11.655-15.117 16.005 1.229 2.585 4.107 1.869 5.335-0.889 0.258 4.043 1.792-2.133 4.446 0 0.102 9.986-11.404 11.752-16.895 13.338 4.535 5.831 9.956-0.587 16.895-2.667 2.053 2.688 1.409 8.075 2.667 11.56 12.26 1.415 14.78 10.852 25.787 11.56-2.068 6.967 5.663 11.413 11.56 13.338 0.833-5.161-8.225-7.649-9.781-13.338 4.846 1.093 10.993 8.562 18.673 9.781 0.951-5.397-5.479-3.413-6.225-7.114-1.009 0.17-0.494 0.893 0 0.89-6.768-2.35-14.767-9.772-11.56-16.895 4.175 1.528 7.531 3.196 11.56-0.89-6.92-3.157-9.875-10.28-16.005-14.228-0.097-6.495 2.375-13.684 8.892-16.006 6.459 2.921 4.95 13.959 13.338 16.896 1.673 12.726-2.439 21.092 3.557 33.79-7.379 13.568 5.621 25.947 1.778 40.903-1.972 0.489-1.266-1.697-2.668-1.778 1.332 3.804 1.855 8.058-0.889 13.338-2.567-2.229-1.959-7.138-4.446-9.781-3.663 2.641 4.43 6.886 1.778 14.228-1.77-2.012-1.444-8.425-5.335-10.671-0.098 2.69 4.652 10.206 2.668 15.117-3.53-0.406 0.531-9.586-4.446-10.671 2.328 2.113 1.348 9.238 1.778 10.671-3.036 2.688-0.447-7.813-3.557-8.003-0.104 1.858 0.961 7.465 0 10.67 4.43 0.477 1.278 2.569 6.225 2.668-4.635 18.756-1.125 28.658-12.449 42.682-0.982-6.22 2.382-12.616 3.557-17.784-6.107 2.785-5.985 11.8-9.781 16.896 1.078 2.772-0.475 3.826 1.778 6.225-7.895 11.057-28.257 10.891-32.901 2.667 0.773-2.626 1.332 2.063 3.557 0.89 3.16-4.208 2.883-9.931 0-11.56-0.317 0.088 7.254-0.191 6.224 3.557 2.097-1.145 1.654 0.116 4.446-0.89 0.187-1.521-1.516-2.303 0-2.667-4.569 0.411-11.491-2.816-14.228-8.893 14.481 3.62 33.478-3.733 34.679-19.562-1.645 0.134-0.546 3.012-1.778 3.557-1.645-0.134-0.546-3.012-1.778-3.557-1.963 2.467-2.053 4.159-2.668 6.225-2.448-1.104-1.367-2.586-0.889-4.446-3.598 1.787-2.344 5.294-5.335 8.893-1.604-4.13 0.435-8.979 0.889-14.228-4.854 3.225-4.461 11.175-0.889 15.116-3.017 3.329-5.287 3.665-9.782 3.557 0.369-5.394 0.571-11.953 3.557-16.005 2.12 4.548-3.414 9.606-0.889 15.116 3.415-6.565 2.25-12.389 5.335-18.674-0.889-1.481-4.112-0.629-4.446-2.667-2.788 0.176-0.111 5.816-3.557 5.335 0.602-2.096 0.991-5.722 2.668-8.893-6.007 1.325-4.371 9.286-5.335 13.339-1.011 4.246-4.916 8.406-1.778 13.338 2.508-7.296-0.146-10.752 4.446-16.895 1.373 4.859-3.094 10.954-1.778 17.784-4.494 0.011-11.758 0.826-13.338-5.336 3.177 0.38 2.968 4.145 7.114 3.557 1.326-8.703 4.3-18.859 5.335-27.565-5.923 6.049-2.708 10.514-6.224 20.452-4.926-3.95 4.473-16.102 2.667-22.23-3.213-0.249-2.033 3.895-3.557 5.336-1.257-0.967-0.262-3.633 0.89-6.225-1.331-1.008-3.711-1.189-4.446 0.889-2.292-0.214 1.221-1.53 0-3.557-6.675 1.692-3.949 8.94-5.335 16.896-7.903-4.993 1.062-11.828 0.889-18.674-6.665 2.899-1.15 12.141-8.892 14.228-2.584-4.178-5.039-6.253-10.671-12.449 2.784-5.175 3.138-8.761 4.446-14.228-3.377 2.22-3.315 6.37-4.446 12.449-7.024-2.516 2.508-10.007 0-13.338-2.886 2.486-2.989 4.885-3.557 8.003-4.398-0.642-4.193-5.885-7.114-8.003 0.528-4.215 0.728-8.757 2.667-11.56-4.066 0.946-3.627 6.049-4.446 8.003-2.514-2.904 0.962-9.08 2.667-14.228-4.058 0.388-3.543 5.349-5.335 8.003-4.192-1.922 0.646-5.07 0.889-9.781-1.549 2.007-2.753 4.36-4.446 6.224-5.184-3.203-2.667-10.26-8.892-8.002 0.907-1.168 0.872-3.278 1.778-4.446-2.787-0.416-2.506 2.236-3.557 3.557-2.63-1.558 0.514-4.738 0-7.113-2.281 0.09-1.429 3.313-2.667 4.445-2.606-0.753 0.531-2.862 0-4.445-1.521-0.039-2.303 0.66-2.668 1.778-1.035-1.435 1.407-4.521-3.557-2.668-1.672-2.835 1.925-5.42-1.778-6.225 0.765-0.717 0.528-2.436 1.778-2.667-2.507-1.528-2.063-1.103-2.667-3.558-0.792 0.395-1.59 0.781-1.778 1.778-2.689-1.346 0.737-3.902 0-6.224-2.877-1.099-0.68 2.877-3.557 1.778 2.548-4.66-5.976-4.702-2.667-12.449-3.03-4.973-7.085-8.921-9.781-14.228 12.273-12.421 16.124 6.447 26.676 19.562 4.748 5.9 8.688 7.928 10.67 15.117-0.833 3.908-4.391 5.095-3.557 10.67 4.318-3.969 7.935-12.42 9.781-16.006-1.478-1.922-2.388 3.534-5.335 0.89 1.679-2.751 1.314-4.897 1.778-7.114-2.172-2.254-1.895 1.875-5.335 0.89 0.602-2.065 2.955-2.38 3.557-4.446-2.204-2.999-2.951 2.907-6.225 1.778 0.498-2.467 3.06-2.868 3.557-5.335-0.553-0.401-3.715-0.168-3.557 1.778-4.876-0.583 4.292-3.278 0.889-5.335-2.739-0.665-1.083 3.065-4.446 1.778 0.463-1.315 1.315-2.241 1.778-3.557-2.607 0.839-3.302 1.33-4.446 1.778-1.945-0.602 1.685-2.955 2.667-3.557-0.144-1.042-1.621-0.751-2.667-0.89 4.209-12.361 1.924-25.812 8.003-37.347 3.478-6.6 12.42-7.727 14.227-16.006 3.074 1.973 4.779-3.746 6.225-6.225 2.837-0.762 2.75 1.4 4.446 1.778 2.352 14.432-8.068 27.749-16.895 25.787 1.723 4.2 5.946 1.927 8.003 4.446 0.956 12.578-9.222 23.77-18.673 17.784 1.445 7.305 9.485 3.681 15.117 1.778 4.132 4.103 3.689 13.067 4.446 16.006 1.559-0.812 3.089-1.653 2.668-4.446 3.806 4.07 8.872-0.88 12.456-1.81zm-8.892 58.69c-2.947 0.352-4.621 6.591-2.667 8.892 0.994-2.85 2.433-5.27 2.667-8.89zm22.23-44.46c2.54-1.996 11.169-13.985 8.003-18.674-1.111 8.24-8.326 11.06-8.003 18.67zm8.003 16.01c1.903-4.068 0.51-8.002 0.889-11.56 0.747-7 4.806-13.27 3.557-17.784-3.902 7.87-8.299 19.76-4.446 29.34zm14.232-16.9c0.239-1.523 1.897-3.496-0.889-3.557-1.752 1.341-3.307 8.863 0 9.781 0.014-2.357-0.493-5.236 1.778-5.335 0.576 4.166-1.163 10.648 0.889 13.338 0.349-7.377 1.018-11.747 0.889-16.895-0.96 0.83-0.28 3.28-2.67 2.67zm6.22 20.45c-1.451-9.907 0.59-11.668-0.889-20.452-1.49 8.19-3.24 13.51 0.89 20.45zm-1.78 16.9c-2.451 0.276 2.806 4.702 3.557 1.778-10.767-11.171-12.887-25.648-18.673-36.458-1.983 13.23 6.124 26.45 15.113 34.68zm7.12-8c-2.534-6.998-1.582-19.183-3.557-24.898-0.37 8.99-2.63 15.07 3.56 24.9zm-61.36-7.12c4.048-0.422 7.898-5.703 7.113-8.003-2.156 2.88-5.789 4.29-7.113 8zm1.778 4.45c1.533-2.913 4.691-4.2 6.224-7.113-3.704 0.17-8.203 4.2-6.224 7.11zm69.362 8.89c-0.961-3.919-2.837-9.165-3.557-10.67-1.4 3-0.17 9.95 3.56 10.67zm-8.9-17.78c0.193 7.705 0.715 17.947 5.335 15.117-4.02-5.12-2.03-12.8-5.34-15.12zm11.56 48.9c1.08-5.768-0.829-10.301-3.557-13.339-11.518-12.823-37.086-17.562-45.35-33.789 7.968 23.56 41.15 24.02 48.91 47.13zm-68.465-35.56c2.016 2.029 3.231-1.282 3.557-3.557-2.263 0.11-3.449 1.29-3.557 3.56zm0.889-7.12c-0.679 2.582-4.214 2.307-3.557 6.225 2.475-0.61 6.932-5.23 3.557-6.22zm68.466 11.56c0.034-2.179-1.366-7.431-2.667-5.335 0.87 0.56-0.38 4.79 2.67 5.34zm-74.69 14.23c0.521-2.506 4.682-9.642 0.889-10.67 0.079 3.58-5.066 8.56-0.889 10.67zm88.03 0c-0.638 0.287-0.619-7.581-3.557-4.445 2.29 1.16 0.7 6.14 3.56 4.45zm-76.47 15.11c1.354-2.386 5.072-10.571 0.889-10.671 2.244 2.13-3.848 7.18-0.889 10.67zm2.667 3.56c4.732-1.939 3.013-8.188 4.446-11.56h-1.779c-0.542 0.05-1.052 0.133-0.889 0.889 1.966 1.69-1.861 5.87-1.778 10.67zm5.335 3.56c-0.122-2.885 5.108-10.342 0.889-13.338 1.332 4.64-4.92 9.66-0.889 13.34zm54.238 14.23c2.949-0.546 4.103-6.164 3.557-8.893-0.77 3.37-4.02 4.27-3.56 8.89zm-8.89 7.11c0.715 4.908-8.763 6.941-4.446 9.781 1.471-1.492 0.708-5.221 4.446-4.445-0.96-2.28 2.7-4.24 0-5.34zm-2.67 10.67h1.779c0.542-0.051 1.052-0.133 0.889-0.89-0.939-1.532 3.309-4.691 1.778-6.225-0.9 2.95-4.92 2.78-4.45 7.11z" fill="#F4E2CF"/>
		<path d="m277.65 280.9c3.192 2.739 0.716 3.982 0 8.893-5.241-0.2-8.929 8.026-10.671 9.781-16.442 16.564-29.392 8.163-43.571-11.56-3.195-0.491-5.906-0.28-6.225-5.335 8.18 0.724 16.02 2.811 23.12 6.224 0.163-0.756-0.347-0.839-0.89-0.889 11.11 5.64 26.2-0.23 38.24-7.11zm-32.01 10.67c-5.19-0.852-13.97-3.015-12.449 1.778 12.968 3.565 25.411 6.521 37.347-3.557-1.667-0.213 0.505-1.464-0.889-1.778-5.97 4.98-16.08 4.86-24.01 3.56zm13.34 8.89c-3.984 1.832-14.959-0.177-18.673-0.89-1.552 1.813 0.662 1.744-0.89 3.557 9.89-0.25 15.74 4.49 19.56-2.67z"/>
		<path d="m269.65 288.01c1.394 0.314-0.778 1.565 0.889 1.778-11.936 10.078-24.379 7.122-37.347 3.557-1.521-4.793 7.259-2.63 12.449-1.778 7.93 1.3 18.04 1.42 24.01-3.56z" fill="#fff"/>
		<path d="m250.98 376.93c-9.525 4.099-23.803-7.906-32.011-10.671-5.82-1.961-11.683-2.361-14.228-3.557-12.691-5.912-37.51 2.911-48.906-4.446-4.528-2.923-4.197-9.588-8.892-7.113 3.952 28.34 46.441 15.498 66.69 19.562 3.079 2.982 4.208 6.973 6.225 8.892-10.07 3.074-24.637 0.144-36.458 4.446 12.471 5.118 27.114-5.415 48.017 3.557-28.088 9.373-58.558 5.963-85.364-14.227-2.604-15.261-1.341-33.482-2.667-51.574-0.553-7.542-2.929-16.395 5.335-16.896-0.46 22.697 3.008 42.105 20.452 40.015-9.17-10.232-8.129-22.075-8.002-39.125 4.472-1.451 3.012-4.859 5.335-7.114 4.095 7.232 4.043 19.64 8.892 27.565 1.883 3.079 4.737 4.324 5.335 8.003 5.777 2.522 9.729 6.87 14.227 10.671 1.009-0.169 0.494-0.892 0-0.89 10.69 9.461 34.552 11.197 45.35 19.563 3.71 2.87 7.24 8.54 10.68 13.33z" fill="#fff"/>
		<path d="m239.42 303.13c1.552-1.812-0.662-1.743 0.89-3.557 3.714 0.713 14.688 2.722 18.673 0.89-3.82 7.16-9.67 2.42-19.56 2.67z" fill="#fff"/>
		<path d="m266.09 308.46c2.493 4.276-2.265 3.279-3.558 4.446-0.204 0.186-0.02 2.919-0.889 3.557-5.209 3.826-19.55 6.373-24.898 0-0.514-0.612 0.073-3.935-0.889-4.445-2.184-1.159-1.41 3.934-3.557 0.889-0.571-0.811 1.694-3.515 0-4.446-2.009 0.498 1.078 1.388-0.89 2.668-1.988-0.383-0.36-4.383-0.889-6.225 6.457 0.657 7.243 6.983 12.448 8.893 1.014-0.211 0.488-0.839 0-0.89 6.9 0.72 20.92 0.97 23.13-4.44z"/>
		<path d="m114.04 315.58c2.981 0.279 0.897 5.624 3.557 6.225-2.06 2.48-5.45-4.61-3.56-6.22z" fill="#fff"/>
		<path d="m106.92 341.36c0.129 5.147-0.541 9.518-0.889 16.895-2.052-2.689-0.313-9.172-0.889-13.338-2.271 0.099-1.765 2.978-1.778 5.335-3.307-0.918-1.752-8.44 0-9.781 2.786 0.061 1.128 2.033 0.889 3.557 2.4 0.6 1.72-1.85 2.67-2.68z"/>
		<path d="m266.09 377.82c1.009 0.17 0.494 0.893 0 0.89 15.032-5.05 29.156-27.353 43.571-22.23-1.398 9.34-11.579 14.414-19.562 14.228 1.581-1.976 3.968-3.146 7.113-3.557-1.552-1.813 0.662-1.744-0.89-3.557-11.519 6.579-20.979 15.802-33.79 18.673 0.61-2.06 2.96-2.37 3.56-4.44z"/>
		<path d="m61.573 358.26c0.785 2.3-3.065 7.581-7.113 8.003 1.324-3.71 4.957-5.12 7.113-8z"/>
		<path d="m254.53 374.26c1.045-1.908-6.132-2.208-3.558-5.335-6.065 0.363-3.616-5.96-8.003-5.335 10.734-1.182 21.139 1.367 33.79-3.558-5.55 7.01-18.47 13.37-22.23 14.24z" fill="#fff"/>
		<path d="m122.04 368.93c0.72 1.505 2.596 6.751 3.557 10.67-3.73-0.72-4.96-7.67-3.56-10.67z"/>
		<path d="m126.49 374.26c1.301-2.096 2.702 3.156 2.667 5.335-3.06-0.55-1.81-4.78-2.67-5.34z"/>
		<path d="m138.94 389.38c2.938-3.136 2.918 4.732 3.557 4.445-2.87 1.7-1.28-3.28-3.56-4.44z"/>
		<path d="m66.909 398.27c4.183 0.1 0.464 8.285-0.889 10.671-2.959-3.49 3.133-8.54 0.889-10.67z"/>
		<path d="m259.87 418.73c0.144-1.033-0.196-1.582-0.89-1.778 4.414-3.579 4.555-9.562 8.893-15.117 1.784 5.643-2.568 9.192-1.778 13.338 2.877 15.101 9.487 30.084 8.892 45.351-0.365 9.36-1.915 23.67-6.225 33.789-3.742 8.789-6.826 19.104-15.116 25.787 0.052-11.83-9.578-21.634-10.671-34.679 16.966-14.648 28.554-41.642 22.23-58.688-0.992-2.677-4.07-4.252 1.778-7.114-0.66-2.01-4.99-0.35-7.11-0.89z" fill="#fff"/>
		<path d="m84.693 412.5c1.052 3.75 1.11 9.947-0.889 15.116-3.46-4.28-0.066-10.43 0.889-15.12z" fill="#F4E2CF"/>
		<path d="m88.25 417.84c2.202 1.634-1.54 7.485-0.889 10.671-3.505 0.35 0.191-7.89 0.889-10.67z" fill="#F4E2CF"/>
		<path d="m119.37 442.74c-3.739-0.775-2.975 2.953-4.446 4.445-4.316-2.84 5.161-4.873 4.446-9.781 2.7 1.1-0.96 3.06 0 5.34z"/>
		<path d="m121.15 440.96c1.53 1.533-2.718 4.692-1.778 6.225 0.163 0.757-0.347 0.839-0.889 0.89h-1.779c-0.47-4.33 3.55-4.16 4.45-7.11z"/>
		<path d="m53.57 488.97c-3.425-3.096-7.221-5.82-9.781-9.781 9.066-13.163 15.204-29.257 28.455-38.236 2.393 6.011-2.467 12.349-2.668 16.896-5.679 4.76-7.972 20.56-16.006 31.12z"/>
		<path d="m221.63 235.55c1.589-1.104-0.69-2.586 0.89-4.445 2.77 0.787 0.676 6.438 6.225 4.445-7.759 5.327-13.582 4.768-21.342-0.889 0.979-2.743 5.184 0.451 4.446-5.335 2.014 1.917 6.692-2.993 9.781 0-0.214 1.564-1.53 2.027-3.557 1.779 0.61 2.07 2.96 2.38 3.56 4.45z"/>
</g>
<metadata><rdf:RDF><cc:Work><dc:format>image/svg+xml</dc:format><dc:type rdf:resource="http://purl.org/dc/dcmitype/StillImage"/><cc:license rdf:resource="http://creativecommons.org/licenses/publicdomain/"/><dc:publisher><cc:Agent rdf:about="http://openclipart.org/"><dc:title>Openclipart</dc:title></cc:Agent></dc:publisher></cc:Work><cc:License rdf:about="http://creativecommons.org/licenses/publicdomain/"><cc:permits rdf:resource="http://creativecommons.org/ns#Reproduction"/><cc:permits rdf:resource="http://creativecommons.org/ns#Distribution"/><cc:permits rdf:resource="http://creativecommons.org/ns#DerivativeWorks"/></cc:License></rdf:RDF></metadata></svg>
