<?xml version="1.0"?>
<svg xmlns:rdf="http://www.w3.org/1999/02/22-rdf-syntax-ns#" xmlns="http://www.w3.org/2000/svg" xmlns:cc="http://web.resource.org/cc/" xmlns:xlink="http://www.w3.org/1999/xlink" xmlns:dc="http://purl.org/dc/elements/1.1/" id="svg1432" viewBox="0 0 565.56 821.09" version="1.0">
  <defs id="defs1435">
    <linearGradient id="linearGradient13999" y2="187.58" gradientUnits="userSpaceOnUse" y1="187.58" x2="267.54" x1="254.26">
      <stop id="stop13991" stop-color="#b3b3b3" offset="0"/>
      <stop id="stop13993" stop-color="#b3b3b3" stop-opacity="0" offset="1"/>
    </linearGradient>
    <linearGradient id="linearGradient16788" y2="793.63" gradientUnits="userSpaceOnUse" x2="458.5" y1="793.63" x1="420.16">
      <stop id="stop16770" offset="0"/>
      <stop id="stop16772" stop-opacity="0" offset="1"/>
    </linearGradient>
  </defs>
  <g id="g2597" transform="matrix(.88618 .46335 -.46335 .88618 265.84 -244.71)">
    <path id="path1449" d="m316.14 473.85l-3.63 127.92-5.09 7.26-6.54 5.09-9.45 2.91-13.8-2.18-14.54-6.54-13.81-15.27-7.99-17.44-4.36-21.07-0.73-14.54 1.11-7.79 1.3-3.03 0.71-1.41 2.26 1.08 3.45-7.3-0.84-0.45-12.35-5.81-1.84 3.57-1.91 3.42 2.3 1.73-2.12 2.03-2.97 2.33-8.72 5.82-7.27 11.62-5.81 16.72-1.46 22.53v18.9l3.64 22.53 7.99 24.71 6.54 18.16 7.27 23.26 5.09 23.26-2.91 29.8-7.27 21.07-21.8 46.52-8 18.89-5.81 21.08-6.18 31.25-0.36 15.99 3.27 18.89 7.27 18.17 8.35 11.27 19.63 15.99 16.71 7.99 23.26 5.82 23.62 2.54 27.98 0.73 34.89 0.36 40.69-0.36 17.81-1.82 25.8-4.36 18.17-7.63 22.53-16.72 13.08-19.26 4.73-13.08 1.81-21.8-0.72-20.35-2.18-15.63-3.64-15.62-7.63-19.26-9.81-26.89-8-17.08-4.72-20.72-1.09-19.98 4.72-22.53 5.82-15.26 5.09-10.18 9.44-23.26 4.36-24.71-1.09-21.07-6.54-13.08-5.08-3.27-4.36 1.09-2.55 2.18-3.27 6.9-3.63 11.99-4.73 11.63-9.81 16.72-7.63 7.26-8.36 5.09-10.17 2.91-7.27 0.36-9.45-1.09-7.99-4.72-9.09-5.82-4.72-5.08-2.54-4.73-1.09-3.99-1.09-175.16h-54.88v0.37" fill-rule="evenodd" stroke="#000" stroke-width="1px" fill="#b37925"/>
    <path id="path1451" d="m426.98 825.97l2.54 10.91-1.45 6.54-4 2.54h-6.18l-3.27-2.54-1.81-2.55-1.46-4.72 2.91-4.73 5.45-1.45 5.45 1.45 3.63 1.82-1.81-7.27z" fill-rule="evenodd" stroke="#000" stroke-width="1px" fill="#5f6161"/>
    <path id="path1453" d="m426.25 825.97l-4-2.9-4.36-0.37-3.99 1.46-2.91 2.54-1.82 4.72v4.73l1.45 2.54 1.82 1.46h0.37" stroke="#000" stroke-width="1px" fill="none"/>
    <path id="path1455" d="m464.41 855.41l3.27 9.81-1.09 5.81-2.18 2.55-2.55 2.18h-4.36l-6.18-3.27-1.45-3.27 0.73-4.36 3.63-4.36 4-1.1 5.45 1.82 3.63 2.18-2.9-7.99z" fill-rule="evenodd" stroke="#000" stroke-width="1px" fill="#5f615f"/>
    <path id="path1457" d="m465.13 856.13l-3.99-3.27-5.82-1.09-4.36 2.55-3.63 3.27-1.09 3.63 0.36 4.73 3.27 4.36 1.45 1.09" stroke="#000" stroke-width="1px" fill="none"/>
    <path id="path1459" d="m294.71 681.71l93.02 1.45-0.73 47.24-94.11-1.09 1.82-47.6z" fill-rule="evenodd" fill-opacity=".75" stroke="#000" stroke-width="1px" fill="#333"/>
    <path id="path1461" d="m301.97 726.41l2.18-40.7 75.22 1.45-0.72 39.97-76.68-0.72z" fill-rule="evenodd" fill-opacity=".75" stroke="#000" stroke-width="1px" fill="#333"/>
    <path id="path1463" d="m306.54 692.24l3.99-3.59 2.57-0.52 56.78 0.13 4.5 2.83 1.8 3.6-0.13 3.98-1.16 2.95-2.05 2.44-2.83 1.67-3.73 0.52-55.37-0.64-1.93-1.67s-1.41-1.55-1.54-2.06-1.28-3.21-1.28-3.21v-2.7l0.26-1.93 0.12-1.8z" fill-rule="evenodd" stroke="#000" stroke-width="1px" fill="#232726"/>
    <path id="path1467" d="m292.93 792.46l92.63 0.89-0.77 45.36-93.15-0.52 1.29-45.73z" fill-rule="evenodd" fill-opacity=".75" stroke="#000" stroke-width="1px" fill="#333"/>
    <path id="path1469" d="m302.18 796.18l-0.78 38.93 74.78 0.51 0.9-38.8-74.9-0.64z" fill-rule="evenodd" fill-opacity=".75" stroke="#000" stroke-width="1px" fill="#333"/>
    <path id="path1475" d="m303.06 845.96l59.96 0.73 1.45-1.46 2.55-1.45 3.63 0.36 1.82 2.18 2.72 0.91 1.28 2-0.55 13.45 8 0.36 1.27 0.91 0.54 17.62 0.18 1.82-0.72 1.09-0.37 3.27-82.67-0.36-1.63-3.46-0.36-1.09 1.45-35.61 1.45-1.45v0.36" fill-rule="evenodd" stroke="#000" stroke-width="1px" fill="#686967"/>
    <path id="path1477" d="m306.33 860.68h10.9l-0.18 18.71-11.26 0.18 0.54-18.89z" stroke="#000" stroke-width="1px" fill="none"/>
    <path id="path1479" d="m339.76 862.13h10.91l-0.19 18.71-11.26 0.19 0.54-18.9z" stroke="#000" stroke-width="1px" fill="none"/>
    <path id="path1481" d="m328.5 859.77h10.9l-0.18 18.71-11.27 0.18 0.55-18.89z" stroke="#000" stroke-width="1px" fill="none"/>
    <path id="path1483" d="m317.05 859.95h10.9l-0.18 18.71-11.26 0.19 0.54-18.9z" stroke="#000" stroke-width="1px" fill="none"/>
    <path id="path1485" d="m361.93 858.86h10.9l-0.18 18.71-11.26 0.19 0.54-18.9z" stroke="#000" stroke-width="1px" fill="none"/>
    <path id="path1487" d="m350.67 860.5h10.9l-0.18 18.71-11.27 0.18 0.55-18.89z" stroke="#000" stroke-width="1px" fill="none"/>
    <path id="path1489" d="m312.51 602.86l-0.73 73.04 2.91 3.99 51.6 0.37 4-2.55 1.45-3.27 0.37-24.71" stroke="#000" stroke-width="1px" fill="none"/>
    <path id="path1495" d="m371.74 672.26l-59.96-0.36" stroke="#000" stroke-width="1px" fill="none"/>
    <path id="path2257" d="m428.61 832.7l-1.56-6.46-5.07-3.46-3.98-0.07-3.86 1.35-2.95 2.57-1.87 4.63-0.19 4.81 1.67 3.02 1.74 0.52-1.16-3.47 2.83-4.44 5.26-1.73 9.13 3.08 0.06-0.32-0.13-0.06" fill-rule="evenodd" stroke="#000" stroke-width="1px" fill="#5f6161"/>
    <path id="path2259" d="m466.95 862.68l-2-6.91-3.72-2.91-5.91-1.18-4.54 2.64-3 3.09-1.36 3.81v4.54l3.81 4.55 0.28-5.36 3.72-4.36 4-1.19 5.27 1.82 3.54 2.18-0.09-0.72z" fill-rule="evenodd" stroke="#000" stroke-width="1px" fill="#5f6161"/>
    <path id="path2261" d="m228.3 526.9l9.44 4.62 1.55-3.21 2.12 0.96 3.66-7.19-13.11-6.23-3.85 6.74 2.31 1.86-2.12 2.45z" fill-rule="evenodd" stroke="#000" stroke-width="1px" fill="#7a726e"/>
    <path id="path2263" d="m316.12 473.58l-3.91 131.1-0.79 70.99 3.18 4.12 50.52 0.51 4.44-2.44 1.53-4.11-0.77-200.17h-54.2z" fill-rule="evenodd" stroke="#000" stroke-width=".99403px" fill="#212121"/>
    <rect id="rect2281" rx="0" ry="1.9986" height="1.0902" width="59.972" y="619.77" x="311.73" fill="#d5cebc"/>
    <rect id="rect2283" rx="0" ry="1.9986" height="1.0902" width="60.871" y="663.73" x="311.16" fill="#d5cebc"/>
    <rect id="rect2285" rx="0" ry="1.9986" height="1.0902" width="60.871" y="631.22" x="311.42" fill="#d5cebc"/>
    <rect id="rect2287" rx="0" ry="1.9986" height="1.0902" width="60.871" y="641.69" x="311.42" fill="#d5cebc"/>
    <rect id="rect2289" rx="0" ry="1.9986" height="1.0902" width="60.871" y="652.51" x="311.45" fill="#d5cebc"/>
    <rect id="rect2291" rx="0" ry="1.9986" height="1.0902" width="60.871" y="674.1" x="311.34" fill="#d5cebc"/>
    <path id="path10186" d="m277.45 718.53a13.173 11.22 0 1 1 2.4 -0.94" stroke-width="0" fill="#ccc" transform="matrix(.18350 0 0 .20260 263.91 552.55)"/>
    <path id="path10190" d="m277.45 718.53a13.173 11.22 0 1 1 2.4 -0.94" stroke-width="0" fill="#ccc" transform="matrix(.18350 0 0 .20260 316.58 553.1)"/>
    <path id="path10192" d="m277.45 718.53a13.173 11.22 0 1 1 2.4 -0.94" stroke-width="0" fill="#ccc" transform="matrix(.18350 0 0 .20260 306.06 552.91)"/>
    <path id="path10194" d="m277.45 718.53a13.173 11.22 0 1 1 2.4 -0.94" stroke-width="0" fill="#ccc" transform="matrix(.18350 0 0 .20260 295.56 552.91)"/>
    <path id="path10196" d="m277.45 718.53a13.173 11.22 0 1 1 2.4 -0.94" stroke-width="0" fill="#ccc" transform="matrix(.18350 0 0 .20260 285.07 552.82)"/>
    <path id="path10198" d="m277.45 718.53a13.173 11.22 0 1 1 2.4 -0.94" stroke-width="0" fill="#ccc" transform="matrix(.18350 0 0 .20260 274.27 552.82)"/>
    <path id="path10234" d="m332.78 981.89l-10.51-0.29-0.07 3.56-2.33 0.01-0.34 8.06 14.51 0.23 0.7-7.74-2.88-0.73 0.92-3.1z" fill-rule="evenodd" stroke="#000" stroke-width="1px" fill="#7a726e"/>
    <path id="path10359" d="m373.08 248.71l-0.09-1.33s-0.58-2.22-0.27-3.73c0.32-1.52 0.84-6.47 1.22-8.29 0.37-1.82 1.52-9.8 1.52-9.8s1.83-4.07 4.99-5.05c3.16-0.97 9.67-3.84 9.67-3.84l6.99-2.78 4.61-3.22 1.29-3.86s-1.63-4.09-2.26-5.79c-0.64-1.69-2.45-4.88-2.68-6.18-0.22-1.3-10.28-24.34-10.28-24.34l-4.45-7.15s-4.19-3.63-4.76-5.63c-0.58-2-2.45-4.88-2.62-6.49-0.16-1.61-0.8-3.3-0.48-4.82 0.31-1.52 0.21-3.43 2.3-3.98 2.08-0.55 3.16-0.98 4.83-1.92 1.68-0.95 13.78-9.38 13.78-9.38l3.96-9.65-4.71-10.67-11.86-9.5-12.27-5.164s-8.13-1.226-10.98-1.766-17.46 3.313-17.46 3.313l-7.26 6.507-2.89 9.23-23.68 107.78 5.9 4.9 2.63 8.73 1.16 6.16-1.56 7.58 55.71 0.13z" fill-rule="evenodd" stroke="#000" stroke-width=".90898px" fill="#b37925"/>
    <g id="g13044" stroke="#000" stroke-width=".5" transform="matrix(.96451 -.26406 .26406 .96451 23.768 2.1432)" fill="url(#linearGradient13999)">
      <path id="path11268" d="m261.53 192.92a5.396 6.0384 0 1 1 3.46 -4.15" transform="translate(.12848 -.18949)"/>
      <path id="path12157" d="m261.54 192.7l4.15 1.49 1.6-2.38-2.21-3.35" fill-rule="evenodd"/>
    </g>
    <g id="g14001" stroke="#000" stroke-width=".5" transform="matrix(.96451 -.26406 .26406 .96451 19.293 21.158)" fill="url(#linearGradient13999)">
      <path id="path14003" d="m261.53 192.92a5.396 6.0384 0 1 1 3.46 -4.15" transform="translate(.12848 -.18949)"/>
      <path id="path14005" d="m261.54 192.7l4.15 1.49 1.6-2.38-2.21-3.35" fill-rule="evenodd"/>
    </g>
    <g id="g14007" stroke="#000" stroke-width=".5" transform="matrix(.96451 -.26406 .26406 .96451 15.439 40.385)" fill="url(#linearGradient13999)">
      <path id="path14009" d="m261.53 192.92a5.396 6.0384 0 1 1 3.46 -4.15" transform="translate(.12848 -.18949)"/>
      <path id="path14011" d="m261.54 192.7l4.15 1.49 1.6-2.38-2.21-3.35" fill-rule="evenodd"/>
    </g>
    <g id="g14013" stroke="#000" stroke-width=".5" transform="matrix(.96451 -.26406 .26406 .96451 11.231 60.258)" fill="url(#linearGradient13999)">
      <path id="path14015" d="m261.53 192.92a5.396 6.0384 0 1 1 3.46 -4.15" transform="translate(.12848 -.18949)"/>
      <path id="path14017" d="m261.54 192.7l4.15 1.49 1.6-2.38-2.21-3.35" fill-rule="evenodd"/>
    </g>
    <g id="g14019" stroke="#000" stroke-width=".5" transform="matrix(.96451 -.26406 .26406 .96451 6.264 79.543)" fill="url(#linearGradient13999)">
      <path id="path14021" d="m261.53 192.92a5.396 6.0384 0 1 1 3.46 -4.15" transform="translate(.12848 -.18949)"/>
      <path id="path14023" d="m261.54 192.7l4.15 1.49 1.6-2.38-2.21-3.35" fill-rule="evenodd"/>
    </g>
    <g id="g14025" stroke="#000" stroke-width=".5" transform="matrix(.96451 -.26406 .26406 .96451 2.485 98.341)" fill="url(#linearGradient13999)">
      <path id="path14027" d="m261.53 192.92a5.396 6.0384 0 1 1 3.46 -4.15" transform="translate(.12848 -.18949)"/>
      <path id="path14029" d="m261.54 192.7l4.15 1.49 1.6-2.38-2.21-3.35" fill-rule="evenodd"/>
    </g>
    <path id="path14067" d="m265.52 184.94a7.1947 6.1668 0 1 1 0.04 -0.17" transform="matrix(.67898 0 0 .79210 147.03 70.356)" stroke="#000" stroke-width=".5" fill="#b3b3b3"/>
    <path id="path14980" d="m265.52 184.94a7.1947 6.1668 0 1 1 0.04 -0.17" transform="matrix(.67898 0 0 .79210 165.79 -26.515)" stroke="#000" stroke-width=".5" fill="#b3b3b3"/>
    <path id="path14982" d="m265.52 184.94a7.1947 6.1668 0 1 1 0.04 -0.17" transform="matrix(.67898 0 0 .79210 162.19 -7.7575)" stroke="#000" stroke-width=".5" fill="#b3b3b3"/>
    <path id="path14984" d="m265.52 184.94a7.1947 6.1668 0 1 1 0.04 -0.17" transform="matrix(.67898 0 0 .79210 157.56 14.34)" stroke="#000" stroke-width=".5" fill="#b3b3b3"/>
    <path id="path14986" d="m265.52 184.94a7.1947 6.1668 0 1 1 0.04 -0.17" transform="matrix(.67898 0 0 .79210 153.97 32.841)" stroke="#000" stroke-width=".5" fill="#b3b3b3"/>
    <path id="path14988" d="m265.52 184.94a7.1947 6.1668 0 1 1 0.04 -0.17" transform="matrix(.67898 0 0 .79210 150.11 51.727)" stroke="#000" stroke-width=".5" fill="#b3b3b3"/>
    <path id="path14990" d="m305.83 710.57l4.02-3.56 2.58-0.48 56.78 0.7 4.47 2.87 1.76 3.61-0.17 3.99-1.19 2.94-2.08 2.42-2.84 1.64-3.73 0.48-55.36-1.2-1.91-1.69s-1.4-1.56-1.53-2.07c-0.12-0.52-1.25-3.23-1.25-3.23l0.03-2.7 0.28-1.92 0.14-1.8z" fill-rule="evenodd" stroke="#000" stroke-width="1px" fill="#232726"/>
    <path id="path14992" d="m304.54 801.99l3.99-3.6 2.57-0.51 56.78 0.12 4.5 2.83 1.8 3.6-0.13 3.98-1.16 2.96-2.05 2.44-2.83 1.67-3.72 0.51-55.38-0.64-1.92-1.67s-1.42-1.54-1.55-2.06c-0.12-0.51-1.28-3.21-1.28-3.21v-2.7l0.26-1.92 0.12-1.8z" fill-rule="evenodd" stroke="#000" stroke-width="1px" fill="#232726"/>
    <path id="path14994" d="m304.73 820.52l3.98-3.6 2.57-0.51 56.79 0.13 4.49 2.82 1.8 3.6-0.13 3.98-1.15 2.96-2.06 2.44-2.83 1.67-3.72 0.51-55.38-0.64-1.92-1.67s-1.42-1.54-1.54-2.06c-0.13-0.51-1.29-3.21-1.29-3.21v-2.7l0.26-1.92 0.13-1.8z" fill-rule="evenodd" stroke="#000" stroke-width="1px" fill="#232726"/>
    <path id="path10222" d="m277.45 718.53a13.173 11.22 0 1 1 2.4 -0.94" stroke-width="0" fill="#ccc" transform="matrix(.18350 0 0 .20260 261.54 662.88)"/>
    <path id="path10232" d="m277.45 718.53a13.173 11.22 0 1 1 2.4 -0.94" stroke-width="0" fill="#ccc" transform="matrix(.18350 0 0 .20260 272.45 662.66)"/>
    <path id="path10220" d="m277.45 718.53a13.173 11.22 0 1 1 2.4 -0.94" stroke-width="0" fill="#ccc" transform="matrix(.18350 0 0 .20260 283.44 662.68)"/>
    <path id="path10224" d="m277.45 718.53a13.173 11.22 0 1 1 2.4 -0.94" stroke-width="0" fill="#ccc" transform="matrix(.18350 0 0 .20260 293.94 662.92)"/>
    <path id="path10230" d="m277.45 718.53a13.173 11.22 0 1 1 2.4 -0.94" stroke-width="0" fill="#ccc" transform="matrix(.18350 0 0 .20260 316.45 662.9)"/>
    <path id="path10212" d="m277.45 718.53a13.173 11.22 0 1 1 2.4 -0.94" stroke-width="0" fill="#ccc" transform="matrix(.18350 0 0 .20260 304.94 662.8)"/>
    <path id="path10210" d="m277.45 718.53a13.173 11.22 0 1 1 2.4 -0.94" stroke-width="0" fill="#ccc" transform="matrix(.18350 0 0 .20260 261.71 681.46)"/>
    <path id="path10228" d="m277.45 718.53a13.173 11.22 0 1 1 2.4 -0.94" stroke-width="0" fill="#ccc" transform="matrix(.18350 0 0 .20260 272.23 681.41)"/>
    <path id="path10218" d="m277.45 718.53a13.173 11.22 0 1 1 2.4 -0.94" stroke-width="0" fill="#ccc" transform="matrix(.18350 0 0 .20260 283.49 681.53)"/>
    <path id="path10214" d="m277.45 718.53a13.173 11.22 0 1 1 2.4 -0.94" stroke-width="0" fill="#ccc" transform="matrix(.18350 0 0 .20260 294.23 681.4)"/>
    <path id="path10216" d="m277.45 718.53a13.173 11.22 0 1 1 2.4 -0.94" stroke-width="0" fill="#ccc" transform="matrix(.18350 0 0 .20260 305.45 681.6)"/>
    <path id="path10226" d="m277.45 718.53a13.173 11.22 0 1 1 2.4 -0.94" stroke-width="0" fill="#ccc" transform="matrix(.18350 0 0 .20260 316.24 682.01)"/>
    <path id="path10202" d="m277.45 718.53a13.173 11.22 0 1 1 2.4 -0.94" stroke-width="0" fill="#ccc" transform="matrix(.18350 0 0 .20260 264.25 571.17)"/>
    <path id="path10200" d="m277.45 718.53a13.173 11.22 0 1 1 2.4 -0.94" stroke-width="0" fill="#ccc" transform="matrix(.18350 0 0 .20260 274.43 571.36)"/>
    <path id="path10188" d="m277.45 718.53a13.173 11.22 0 1 1 2.4 -0.94" stroke-width="0" fill="#ccc" transform="matrix(.18350 0 0 .20260 284.51 571.45)"/>
    <path id="path10208" d="m277.45 718.53a13.173 11.22 0 1 1 2.4 -0.94" stroke-width="0" fill="#ccc" transform="matrix(.18350 0 0 .20260 295.47 571.7)"/>
    <path id="path10206" d="m277.45 718.53a13.173 11.22 0 1 1 2.4 -0.94" stroke-width="0" fill="#ccc" transform="matrix(.18350 0 0 .20260 305.8 571.79)"/>
    <path id="path10204" d="m277.45 718.53a13.173 11.22 0 1 1 2.4 -0.94" stroke-width="0" fill="#ccc" transform="matrix(.18350 0 0 .20260 316.41 572.14)"/>
    <path id="path14996" d="m421.16 776.92l36.34 33.43" fill-rule="evenodd" stroke="url(#linearGradient16788)" stroke-width="2" fill="#74ea25"/>
    <path id="path17679" d="m191.49 769.74a1.0902 5.0874 0 1 1 0.2 -0.43" transform="matrix(.68571 -.72788 .72788 .68571 -236.51 419.87)" stroke="#000" stroke-width=".4" fill="gray"/>
    <path id="path18570" d="m377.99 931.7a8.7364 7.4516 0 1 1 1.58 -0.62" transform="translate(18.501 -40.598)" stroke="#000" stroke-width="1.1" fill="#b3b3b3"/>
    <path id="path17683" d="m392.13 886.23l13.89-0.32 69-64.25 3.05-16.63-5.34-0.88-4.27 20.11-63.55 59.86-13.21-0.12 0.43 2.23z" fill-rule="evenodd" stroke="#000" stroke-width=".906" fill="#b3b3b3"/>
    <path id="path21227" d="m475.23 821.68l3.02-16.44-5.48-1.25-4.54 20.13 7-2.44z" stroke="#000" stroke-width=".1" fill-rule="evenodd"/>
    <path id="path22114" d="m468.74 824.57l1.67 1.03 3.92-3.79-5.52 1.67-0.07 1.09z" stroke="#000" stroke-width="1px" fill-rule="evenodd"/>
    <path id="path22116" d="m455.32 836.84c0.26-0.06 1.86 1.48 1.86 1.48l13.49-12.78-2.38-1.61-12.97 12.91z" stroke="#000" stroke-width=".2" fill-rule="evenodd"/>
    <path id="path23003" d="m308.22 909.11a4.3682 2.441 0 0 1 -3.13 -4.56l1.71 2.25z" transform="matrix(.15135 -.45406 .90973 .30324 -503.6 752.23)" stroke="#000" stroke-width=".2" fill="#666"/>
    <path id="path23005" d="m308.22 909.11a4.3682 2.441 0 0 1 -3.13 -4.56l1.71 2.25z" transform="matrix(.15135 -.45406 .90973 .30324 -515.77 752.41)" stroke="#000" stroke-width=".2" fill="#666"/>
    <path id="path23007" d="m308.22 909.11a4.3682 2.441 0 0 1 -3.13 -4.56l1.71 2.25z" transform="matrix(.15135 -.45406 .90973 .30324 -560.92 752.23)" stroke="#000" stroke-width=".2" fill="#666"/>
    <path id="path23009" d="m308.22 909.11a4.3682 2.441 0 0 1 -3.13 -4.56l1.71 2.25z" transform="matrix(.15135 -.45406 .90973 .30324 -527.04 752.41)" stroke="#000" stroke-width=".2" fill="#666"/>
    <path id="path23011" d="m308.22 909.11a4.3682 2.441 0 0 1 -3.13 -4.56l1.71 2.25z" transform="matrix(.15135 -.45406 .90973 .30324 -538.2 752.32)" stroke="#000" stroke-width=".2" fill="#666"/>
    <path id="path23013" d="m308.22 909.11a4.3682 2.441 0 0 1 -3.13 -4.56l1.71 2.25z" transform="matrix(.15135 -.45406 .90973 .30324 -549.93 752.23)" stroke="#000" stroke-width=".2" fill="#666"/>
    <g id="g24884">
      <rect id="rect2265" rx="0" ry="1.9986" height="1.0902" width="57.328" y="512.64" x="314.43" fill="#d5cebc"/>
      <rect id="rect2267" rx="0" ry="1.9986" height="1.0902" width="58.055" y="542.17" x="313.39" fill="#d5cebc"/>
      <rect id="rect2269" rx="0" ry="1.9986" height="1.0902" width="57.601" y="526.65" x="314.04" fill="#d5cebc"/>
      <rect id="rect2271" rx="0" ry="1.9986" height="1.0902" width="59.844" y="570.16" x="312.39" fill="#d5cebc"/>
      <rect id="rect2273" rx="0" ry="1.9986" height="1.0902" width="58.687" y="556.05" x="312.96" fill="#d5cebc"/>
      <rect id="rect2275" rx="0" ry="1.9986" height="1.0902" width="60.101" y="583.46" x="312.19" fill="#d5cebc"/>
      <rect id="rect2277" rx="0" ry="1.9986" height="1.0902" width="60.871" y="595.13" x="311.53" fill="#d5cebc"/>
      <rect id="rect2279" rx="0" ry="1.9986" height="1.0902" width="60.871" y="607.6" x="311.56" fill="#d5cebc"/>
      <rect id="rect3863" rx="0" ry="1.9986" height="1.0902" width="56.329" y="496.49" x="315.01" fill="#d5cebc"/>
      <path id="path3843" d="m316.23 473.36l3.18-222.43 53.05 0.28-1.53 221.58-54.7 0.57z" fill-rule="evenodd" stroke="#000" stroke-width="1.1772px" fill="#212121"/>
      <rect id="rect3845" rx="0" ry="1.9986" height="1.0902" width="54.88" y="324.59" x="317.72" fill="#d5cebc"/>
      <rect id="rect3847" rx="0" ry="1.9986" height="1.0902" width="54.918" y="345.36" x="317.42" fill="#d5cebc"/>
      <rect id="rect3849" rx="0" ry="1.9986" height="1.0902" width="55.009" y="365.64" x="317.09" fill="#d5cebc"/>
      <rect id="rect3851" rx="0" ry="1.9986" height="1.0902" width="55.281" y="387.65" x="316.6" fill="#d5cebc"/>
      <rect id="rect3853" rx="0" ry="1.9986" height="1.0902" width="55.266" y="409.29" x="316.49" fill="#d5cebc"/>
      <rect id="rect3855" rx="0" ry="1.9986" height="1.0902" width="55.228" y="427.12" x="316.3" fill="#d5cebc"/>
      <rect id="rect3857" rx="0" ry="1.9986" height="1.0902" width="55.689" y="444.74" x="316.03" fill="#d5cebc"/>
      <rect id="rect3859" rx="0" ry="1.9986" height="1.0902" width="55.689" y="462.45" x="315.76" fill="#d5cebc"/>
      <rect id="rect3861" rx="0" ry="1.9986" height="1.0902" width="55.961" y="480.59" x="315.31" fill="#d5cebc"/>
      <rect id="rect3865" rx="0" ry="1.9986" height="1.0902" width="54.404" y="276.44" x="318.45" fill="#d5cebc"/>
      <rect id="rect3867" rx="0" ry="1.9986" height="1.0902" width="54.533" y="302.42" x="318.09" fill="#d5cebc"/>
      <rect id="rect3869" rx="0" ry="1.9986" height="2.5437" width="54.774" y="248.83" x="318.48" fill="#d5cebc"/>
      <path id="path23015" d="m335.77 265.34l-0.37-3.87 9.44 3.74-1.96-6.64 18.36 6.9-14.24-1.42 1.38 4.88-12.61-3.59z" stroke-width="0" fill="#b3b3b3" fill-rule="evenodd"/>
      <path id="path23916" d="m332.99 490.41l-0.37-3.88 9.43 3.74-1.95-6.64 18.36 6.9-14.24-1.41 1.38 4.87-12.61-3.58z" stroke-width="0" fill="#b3b3b3" fill-rule="evenodd"/>
      <path id="path23918" d="m332.94 438.27l-0.37-3.87 9.44 3.74-1.95-6.65 18.36 6.9-14.24-1.41 1.37 4.88-12.61-3.59z" stroke-width="0" fill="#b3b3b3" fill-rule="evenodd"/>
      <path id="path23920" d="m333.72 400.76l-0.37-3.88 9.43 3.74-1.95-6.64 18.36 6.9-14.24-1.41 1.37 4.87-12.6-3.58z" stroke-width="0" fill="#b3b3b3" fill-rule="evenodd"/>
      <path id="path23922" d="m334.49 356.82l-0.37-3.88 9.43 3.74-1.95-6.64 18.36 6.9-14.24-1.41 1.38 4.87-12.61-3.58z" stroke-width="0" fill="#b3b3b3" fill-rule="evenodd"/>
      <path id="path23924" d="m334.74 315.71l-0.37-3.88 9.44 3.74-1.95-6.64 18.36 6.9-14.25-1.41 1.38 4.87-12.61-3.58z" stroke-width="0" fill="#b3b3b3" fill-rule="evenodd"/>
      <path id="path23932" d="m332.95 590.65l-0.27-2.51 6.78 2.43-1.4-4.32 13.2 4.49-10.24-0.92 0.99 3.16-9.06-2.33z" stroke-width="0" fill="#b3b3b3" fill-rule="evenodd"/>
      <path id="path23934" d="m332.32 565.41l-0.37-3.87 9.44 3.74-1.95-6.64 18.36 6.9-14.25-1.41 1.38 4.87-12.61-3.59z" stroke-width="0" fill="#b3b3b3" fill-rule="evenodd"/>
      <path id="path23936" d="m331.96 535.62l-0.37-3.88 9.44 3.74-1.96-6.64 18.36 6.9-14.24-1.41 1.38 4.87-12.61-3.58z" stroke-width="0" fill="#b3b3b3" fill-rule="evenodd"/>
    </g>
    <path id="path23938" d="m334.04 638.62l-0.27-2.51 6.78 2.42-1.4-4.31 13.2 4.48-10.24-0.91 0.99 3.16-9.06-2.33z" stroke-width="0" fill="#b3b3b3" fill-rule="evenodd"/>
    <path id="path23940" d="m332.95 615l-0.27-2.51 6.78 2.42-1.4-4.31 13.2 4.48-10.24-0.91 0.99 3.16-9.06-2.33z" stroke-width="0" fill="#b3b3b3" fill-rule="evenodd"/>
    <path id="path23942" d="m335.13 660.06l-0.27-2.51 6.78 2.42-1.4-4.31 13.2 4.48-10.24-0.91 0.99 3.16-9.06-2.33z" stroke-width="0" fill="#b3b3b3" fill-rule="evenodd"/>
    <path id="path23944" d="m309.53 866.17l-0.23 8.73 4.02-0.1 0.22-8.72" stroke="#000" stroke-width="1px" fill="none"/>
    <path id="path23946" d="m364.94 863.63l-0.22 8.72 4.01-0.09 0.22-8.73" stroke="#000" stroke-width="1px" fill="none"/>
    <path id="path23948" d="m353.86 865.45l-0.22 8.72 4.01-0.09 0.22-8.73" stroke="#000" stroke-width="1px" fill="none"/>
    <path id="path23950" d="m342.96 867.26l-0.23 8.73 4.02-0.1 0.22-8.72" stroke="#000" stroke-width="1px" fill="none"/>
    <path id="path23952" d="m331.69 864.72l-0.22 8.72 4.01-0.09 0.23-8.73" stroke="#000" stroke-width="1px" fill="none"/>
    <path id="path23954" d="m320.43 864.9l-0.23 8.73 4.02-0.1 0.22-8.72" stroke="#000" stroke-width="1px" fill="none"/>
    <path id="path23956" d="m338.04 115.37c5.27 7.82 5.27 7.82 5.27 7.82" stroke="#000" stroke-width=".2" fill="none"/>
    <path id="path24845" d="m338.04 115.37c5.27 7.82 5.27 7.82 5.27 7.82" stroke="#000" stroke-width=".2" fill="none"/>
    <path id="path24847" d="m328.61 173.53l0.14 9.42" stroke="#000" stroke-width=".2" fill="none"/>
    <path id="path24849" d="m336.36 156.54c-6.45 6.88-6.45 6.88-6.45 6.88" stroke="#000" stroke-width=".2" fill="none"/>
    <path id="path24851" d="m336.78 156.88c-6.39 6.92-6.39 6.92-6.39 6.92" stroke="#000" stroke-width=".2" fill="none"/>
    <path id="path24853" d="m335.31 133.63c5.27 7.82 5.27 7.82 5.27 7.82" stroke="#000" stroke-width=".2" fill="none"/>
    <path id="path24855" d="m334.77 134.09c5.27 7.81 5.27 7.81 5.27 7.81" stroke="#000" stroke-width=".2" fill="none"/>
    <path id="path24857" d="m338.58 115.1c5.27 7.81 5.27 7.81 5.27 7.81" stroke="#000" stroke-width=".2" fill="none"/>
    <path id="path24859" d="m329.15 173.62l0.15 9.42" stroke="#000" stroke-width=".2" fill="none"/>
    <path id="path24861" d="m317.7 215.65l9.42-0.14" stroke="#000" stroke-width=".2" fill="none"/>
    <path id="path24863" d="m327.31 216.02l-9.43 0.02" stroke="#000" stroke-width=".2" fill="none"/>
    <path id="path24865" d="m324.88 192.61l0.15 9.42" stroke="#000" stroke-width=".2" fill="none"/>
    <path id="path24867" d="m324.34 192.52l0.14 9.42" stroke="#000" stroke-width=".2" fill="none"/>
    <g id="g25836" stroke="#000" stroke-width=".1" transform="matrix(2.3844 0 0 1 -444.25 0)" fill="none">
      <path id="path25818" d="m320.8 248.84l0.04 2.51"/>
      <path id="path25820" d="m321.16 248.84l0.03 2.51"/>
    </g>
    <path id="path25870" d="m311.06 873.94l10.54-653.37" fill-rule="evenodd" stroke="#98a2a3" stroke-width="1px" fill="gray"/>
    <path id="path26757" d="m321.96 871.4l7.99-671.9" fill-rule="evenodd" stroke="#89959c" stroke-width=".8" fill="#98a2a3"/>
    <path id="path27644" d="m333.59 871.4l4.36-622.84-4.36-67.59" stroke="#779292" stroke-width=".6" fill="none"/>
    <path id="path28531" d="m344.85 873.21l3.64-624.65-9.82-87.58" stroke="#7f8d8d" stroke-width=".5" fill="none"/>
    <path id="path29418" d="m355.75 872.49l2.55-621.39-15.63-111.56" stroke="#788b8a" stroke-width=".2" fill="none"/>
    <path id="path30305" d="m366.66 869.58l1.81-620.3-23.98-126.46" stroke="#768988" stroke-width=".2" fill="none"/>
    <text id="text32077" font-size="24.783px" xml:space="preserve" transform="matrix(-.50740 -.98635 .80169 -.41241 0 0)" line-height="125%" y="286.37091" x="-329.93231" font-family="Amaze" fill="black">
      <tspan id="tspan32079" y="286.37091" x="-329.93231">Fender</tspan>
    </text>
  </g>
  <metadata>
    <rdf:RDF>
      <cc:Work>
        <dc:format>image/svg+xml</dc:format>
        <dc:type rdf:resource="http://purl.org/dc/dcmitype/StillImage"/>
        <cc:license rdf:resource="http://creativecommons.org/licenses/publicdomain/"/>
        <dc:publisher>
          <cc:Agent rdf:about="http://openclipart.org/">
            <dc:title>Openclipart</dc:title>
          </cc:Agent>
        </dc:publisher>
      </cc:Work>
      <cc:License rdf:about="http://creativecommons.org/licenses/publicdomain/">
        <cc:permits rdf:resource="http://creativecommons.org/ns#Reproduction"/>
        <cc:permits rdf:resource="http://creativecommons.org/ns#Distribution"/>
        <cc:permits rdf:resource="http://creativecommons.org/ns#DerivativeWorks"/>
      </cc:License>
    </rdf:RDF>
  </metadata>
</svg>
